<?xml version="1.0" encoding="UTF-8"?>
<svg version="1.1" xmlns="http://www.w3.org/2000/svg" width="3024" height="2079">
<path d="M0 0 C997.92 0 1995.84 0 3024 0 C3024 686.07 3024 1372.14 3024 2079 C2026.08 2079 1028.16 2079 0 2079 C0 1392.93 0 706.86 0 0 Z " fill="#050051" transform="translate(0,0)"/>
<path d="M0 0 C997.92 0 1995.84 0 3024 0 C3024 686.07 3024 1372.14 3024 2079 C2026.08 2079 1028.16 2079 0 2079 C0 1392.93 0 706.86 0 0 Z M1432.125 67.875 C1430.5501181 68.00955093 1430.5501181 68.00955093 1428.94342041 68.14682007 C1413.25983034 69.48997698 1397.59576905 70.83959089 1382 73 C1380.8528653 73.1576181 1380.8528653 73.1576181 1379.68255615 73.31842041 C1350.51465602 77.33960963 1321.72037471 82.51584364 1293 89 C1292.32026123 89.1533783 1291.64052246 89.30675659 1290.94018555 89.46478271 C1277.18375131 92.5807303 1263.5381109 96.04351918 1250 100 C1248.46206787 100.44569336 1248.46206787 100.44569336 1246.89306641 100.90039062 C1204.22208481 113.31065173 1162.75324774 128.280233 1122 146 C1121.03271973 146.41991211 1120.06543945 146.83982422 1119.06884766 147.27246094 C1085.34272846 161.98815268 1052.13834219 178.57022716 1020.56445312 197.47167969 C1018.2246203 198.86613451 1015.87445147 200.23955784 1013.515625 201.6015625 C994.09264571 212.82930638 975.43318836 225.22618658 957 238 C956.24912109 238.51771973 955.49824219 239.03543945 954.72460938 239.56884766 C943.3364188 247.43125858 932.31879834 255.74792224 921.35449219 264.18896484 C919.29493489 265.77314112 917.23107947 267.35136075 915.1640625 268.92578125 C905.48201494 276.3100864 896.10150099 284.02860217 886.83154297 291.92041016 C883.47260393 294.77496225 880.06794861 297.55916276 876.625 300.3125 C870.63544244 305.17956361 865.06734747 310.46910384 859.45703125 315.76171875 C856.27275971 318.76084826 853.00394164 321.64423984 849.6875 324.49609375 C847.30177295 326.62226253 845.08612979 328.90234007 842.84936523 331.18310547 C841.17442949 332.8286331 839.45651887 334.337725 837.66015625 335.84765625 C831.77502165 340.96651844 826.32121121 346.52971192 820.81811523 352.05151367 C818.94170525 353.93328274 817.06001031 355.80964738 815.17773438 357.68554688 C809.79013616 363.07011128 804.44471765 368.43875059 799.50610352 374.24438477 C796.77644362 377.42625935 793.87475338 380.44970436 791 383.5 C786.23332431 388.58615631 781.52817399 393.69920021 777 399 C776.14535156 399.98742187 775.29070313 400.97484375 774.41015625 401.9921875 C760.88412194 416.50896173 760.88412194 416.50896173 749.60066128 432.58127594 C745.48671273 436.40742062 741.26432835 435.67612735 735.84059143 435.60559082 C734.11197157 435.61283259 734.11197157 435.61283259 732.3484301 435.62022066 C729.1481988 435.62869809 725.94895537 435.61477606 722.74882543 435.59157586 C719.29718899 435.57204327 715.84562072 435.58142368 712.39395142 435.58750916 C706.40857686 435.5943099 700.42344569 435.58337845 694.43811226 435.5610199 C685.76146197 435.52907658 677.08503866 435.52947062 668.40834522 435.53866035 C654.30109212 435.5531879 640.19391565 435.54907901 626.08666992 435.52978516 C625.24211524 435.52863671 624.39756055 435.52748827 623.5274133 435.52630502 C616.68466278 435.51686001 609.84191367 435.50651659 602.99916458 435.49609661 C597.04265649 435.487057 591.08614805 435.47836438 585.12963867 435.47021484 C583.8720846 435.46848439 583.8720846 435.46848439 582.5891254 435.46671897 C568.55525246 435.4480189 554.52144581 435.44906451 540.48756927 435.46387625 C531.84711706 435.47205179 523.20702798 435.46278854 514.56663119 435.43028057 C508.62673915 435.40907088 502.68700578 435.4058965 496.74708564 435.41622889 C493.33156675 435.42154107 489.91698464 435.41622283 486.50147438 435.39388847 C455.70520152 435.2024743 427.78609682 441.36437958 404 462 C403.18015625 462.67546875 402.3603125 463.3509375 401.515625 464.046875 C383.80958 479.11350956 372.70477579 500.42281376 368 523 C367.74730347 524.09308472 367.74730347 524.09308472 367.48950195 525.20825195 C366.12949273 531.3794831 365.64791849 537.2503799 365.6875 543.5625 C365.69313965 544.51922607 365.6987793 545.47595215 365.70458984 546.46166992 C366.19544803 575.61427221 378.36331969 601.62234975 398.25 622.6875 C414.28366447 638.02039243 433.60116363 646.98596813 455 652 C455.73556972 652.17327537 456.47113943 652.34655073 457.22899914 652.52507687 C460.38882359 653.06664066 463.35487974 653.12281784 466.56159973 653.12025452 C467.5296845 653.12153615 467.5296845 653.12153615 468.51732653 653.12284368 C470.67149172 653.12448569 472.82557836 653.11899814 474.97973633 653.11352539 C476.52725218 653.11324322 478.07476816 653.11340184 479.62228394 653.1139679 C483.81814678 653.11425469 488.013981 653.10837695 492.2098372 653.10139394 C496.59673305 653.09514084 500.98362956 653.09455505 505.37052917 653.09336853 C513.67541332 653.09026099 521.98028429 653.08205537 530.28516263 653.07201904 C539.74096144 653.06083999 549.19676087 653.05534293 558.65256464 653.05032361 C578.10171723 653.03987229 597.55085756 653.022284 617 653 C616.71601286 653.64921826 616.43202572 654.29843653 616.13943291 654.96732807 C614.83347621 657.95518441 613.52976265 660.94401462 612.22607422 663.93286133 C611.77942917 664.95382149 611.33278412 665.97478165 610.87260437 667.02667999 C607.03840465 675.82412243 603.49020898 684.70174775 600.125 693.6875 C599.83584717 694.45472382 599.54669434 695.22194763 599.2487793 696.01242065 C588.05714931 725.75585625 578.26097773 755.96968542 570.3671875 786.75390625 C569.32445355 790.79968538 568.19747962 794.80935532 567 798.8125 C556.30009794 835.88788079 549.87798481 874.80608817 545.1875 913.0625 C545.06342773 914.07328613 544.93935547 915.08407227 544.81152344 916.12548828 C544.70227539 917.06505371 544.59302734 918.00461914 544.48046875 918.97265625 C544.33967896 920.18320679 544.33967896 920.18320679 544.19604492 921.41821289 C543.95315648 924.61689946 543.98823082 927.79313985 544 931 C542.86705925 930.99772168 542.86705925 930.99772168 541.71123081 930.99539733 C496.90167228 930.90579755 452.09212353 930.83720961 407.2824933 930.79573868 C401.89674343 930.79073612 396.51099374 930.78555881 391.12524414 930.78027344 C390.0530821 930.7792242 388.98092006 930.77817495 387.87626826 930.77709392 C370.5380341 930.75971002 353.19985324 930.72818347 335.86165065 930.69138882 C318.05822652 930.65392326 300.25483021 930.63175229 282.45136827 930.62364602 C271.47425357 930.61816989 260.49728953 930.60090216 249.52022123 930.56833413 C241.98293044 930.54711687 234.44571703 930.54081621 226.90839858 930.54599449 C222.56604296 930.54854509 218.2239498 930.54476018 213.88164139 930.5231781 C209.89418601 930.50350605 205.90716597 930.50286147 201.91968923 930.51640442 C200.48870096 930.51807461 199.05768388 930.51317649 197.62675107 930.50046727 C182.24081238 930.37192878 168.08055344 933.82621887 154 940 C152.99453125 940.44085937 151.9890625 940.88171875 150.953125 941.3359375 C125.50207867 953.27023643 106.08261178 976.03046209 96 1002 C91.87791627 1014.10862096 89.61625908 1026.02630417 89.6875 1038.8125 C89.69241455 1039.86566406 89.6973291 1040.91882812 89.70239258 1042.00390625 C89.82348081 1050.07148757 90.70239271 1057.23631084 93 1065 C93.3403125 1066.26585937 93.680625 1067.53171875 94.03125 1068.8359375 C98.22571935 1083.84618479 104.99519051 1097.00426689 115 1109 C115.77085938 1109.93457031 116.54171875 1110.86914062 117.3359375 1111.83203125 C132.18666254 1129.01369533 152.90191499 1140.97896196 175 1146 C175.72187227 1146.16449579 176.44374453 1146.32899158 177.18749171 1146.49847209 C185.11681399 1148.13278765 192.8444617 1148.27607555 200.91386414 1148.24050903 C202.40003702 1148.24138269 203.8862096 1148.24313661 205.37238055 1148.24568737 C209.4293312 1148.25013345 213.4861751 1148.24219517 217.54311216 1148.23213124 C221.92809935 1148.22345931 226.31308098 1148.22641954 230.69807434 1148.22793579 C238.28645429 1148.22898228 245.87479973 1148.22273039 253.46317101 1148.21146011 C264.43455115 1148.19517603 275.40591468 1148.18999413 286.3773056 1148.18748413 C304.17952503 1148.18311159 321.98172609 1148.16981445 339.78393555 1148.15087891 C357.07267159 1148.13250869 374.36140264 1148.11835778 391.65014648 1148.10986328 C392.71660094 1148.10933783 393.7830554 1148.10881239 394.88182666 1148.10827102 C400.23214716 1148.10566086 405.58246769 1148.10313346 410.93278825 1148.10064721 C455.28853823 1148.07992844 499.64426816 1148.04471492 544 1148 C544.06507248 1149.02018219 544.13014496 1150.04036438 544.19718933 1151.09146118 C544.28528137 1152.4485111 544.37344538 1153.80555635 544.46166992 1155.16259766 C544.50422661 1155.83279434 544.54678329 1156.50299103 544.59062958 1157.1934967 C544.94612492 1162.62685968 545.53507418 1167.98810001 546.3125 1173.375 C546.50706787 1174.75619019 546.50706787 1174.75619019 546.70556641 1176.1652832 C554.24636927 1228.95533383 565.32437396 1281.3024641 582 1332 C582.2648822 1332.80560364 582.5297644 1333.61120728 582.80267334 1334.44122314 C589.42616077 1354.53967209 596.21170999 1374.56885941 604 1394.25 C604.38291199 1395.21842834 604.38291199 1395.21842834 604.77355957 1396.2064209 C607.61085412 1403.34924419 610.59567306 1410.41676965 613.6875 1417.45214844 C614.00783203 1418.18263397 614.32816406 1418.91311951 614.65820312 1419.66574097 C615.43816034 1421.4441089 616.21898824 1423.22209494 617 1425 C616.22383929 1424.99631283 615.44767859 1424.99262566 614.64799786 1424.98882675 C595.68107632 1424.90013107 576.71419668 1424.83412385 557.74711132 1424.79275131 C548.57441402 1424.77220731 539.40185593 1424.74424471 530.22924805 1424.69824219 C522.22574982 1424.65812245 514.22235251 1424.63250804 506.2187565 1424.62364602 C501.98872479 1424.61847338 497.75898157 1424.60649064 493.5290432 1424.57707977 C470.73064881 1424.42484729 450.01769954 1425.06936151 429 1435 C428.36578125 1435.29922363 427.7315625 1435.59844727 427.078125 1435.90673828 C404.92382323 1446.57957316 388.05747634 1464.19219944 377 1486 C376.5565625 1486.87398437 376.113125 1487.74796875 375.65625 1488.6484375 C362.87897676 1515.21581661 363.56556138 1543.07602796 372.12890625 1570.6328125 C379.85302434 1592.5402415 395.16978711 1612.77364805 415 1625 C415.56283691 1625.35304199 416.12567383 1625.70608398 416.70556641 1626.06982422 C433.839901 1636.70227053 451.90355385 1642.40006856 472.14440918 1642.18426514 C473.90483464 1642.17813686 473.90483464 1642.17813686 475.70082426 1642.17188478 C478.92708179 1642.1589242 482.15313302 1642.13701371 485.37931037 1642.11144757 C488.87080401 1642.08617967 492.36234345 1642.073055 495.85389709 1642.05897522 C501.11455617 1642.03686124 506.37517854 1642.0113241 511.6358012 1641.98178861 C521.97264113 1641.92421263 532.30938268 1641.89652199 542.6463623 1641.87994385 C544.27718433 1641.87720295 545.90800636 1641.87445818 547.53882837 1641.87170959 C550.83937306 1641.86623741 554.13991797 1641.86092565 557.44046307 1641.85570192 C565.90871804 1641.84219762 574.37696853 1641.82727278 582.84521484 1641.80908203 C583.69441535 1641.8072693 584.54361586 1641.80545656 585.41854972 1641.8035889 C599.18761972 1641.7728376 612.95615759 1641.6984778 626.72496194 1641.60993728 C640.88337736 1641.52008267 655.04124437 1641.48371079 669.19994211 1641.49506879 C677.92228374 1641.50025586 686.64233295 1641.46310402 695.3641988 1641.37097189 C701.34212102 1641.31168218 707.31873674 1641.30391418 713.2968601 1641.3361769 C716.74275621 1641.3532214 720.18466733 1641.34786576 723.63003731 1641.28066444 C745.40208141 1640.92546827 745.40208141 1640.92546827 751.00263977 1646.07741547 C753.93362123 1649.43491918 755.93617192 1653.06477477 758 1657 C759.15473327 1658.45803593 760.34355659 1659.89179218 761.6015625 1661.26171875 C762.10598877 1661.83647949 762.61041504 1662.41124023 763.13012695 1663.00341797 C763.62343506 1663.55916504 764.11674316 1664.11491211 764.625 1664.6875 C768.28162364 1668.84979839 771.86570117 1673.03531614 775.3125 1677.375 C780.59186029 1683.90345108 786.42576156 1689.9080975 792.20703125 1695.98828125 C795.09268359 1699.0262182 797.91468815 1702.10816329 800.6875 1705.25 C804.72665932 1709.79308515 809.01884466 1714.05144939 813.34228516 1718.32080078 C816.20970476 1721.16462716 818.96601535 1724.02699387 821.5625 1727.125 C824.80183392 1730.93738562 828.45463169 1734.23667663 832.16723633 1737.57373047 C836.15756715 1741.17746127 839.97272424 1744.92436104 843.75 1748.75 C847.68661281 1752.72799639 851.65204186 1756.57914898 855.921875 1760.203125 C858.08112394 1762.07014476 860.17596688 1763.99947906 862.26782227 1765.94140625 C867.48033913 1770.77907008 872.81970812 1775.3679606 878.36328125 1779.828125 C880.92420028 1781.93756349 883.37123455 1784.12887648 885.8125 1786.375 C890.78070323 1790.89653512 896.00803577 1795.01152206 901.3125 1799.125 C904.36074183 1801.49012633 907.36550736 1803.90408792 910.36181641 1806.33447266 C918.93104538 1813.27190409 927.76087229 1819.82323532 936.67822266 1826.3046875 C938.78927149 1827.84613052 940.88689932 1829.40370036 942.98046875 1830.96875 C975.17635341 1854.86267598 1009.85008536 1875.79515036 1045 1895 C1046.10279297 1895.60553711 1047.20558594 1896.21107422 1048.34179688 1896.83496094 C1109.77996452 1930.49802998 1175.83394936 1958.47701623 1243.58203125 1976.53515625 C1247.97097313 1977.70904333 1252.33093754 1978.96401625 1256.6887207 1980.24804688 C1269.6678656 1984.05852884 1282.79806225 1987.07053378 1296 1990 C1297.89194288 1990.42571106 1299.78387063 1990.85148933 1301.67578125 1991.27734375 C1324.27591225 1996.31892682 1347.03850396 2000.95746817 1370 2004 C1371.32118208 2004.18025575 1372.64230404 2004.36095238 1373.96337891 2004.54199219 C1417.73539655 2010.51218834 1461.14135931 2013.66564479 1505.3260498 2013.33294678 C1509.61250753 2013.30533316 1513.89891315 2013.297105 1518.18544579 2013.28924274 C1544.2994366 2013.24015498 1570.35281408 2013.09985157 1596.375 2010.6875 C1597.07923096 2010.62308716 1597.78346191 2010.55867432 1598.5090332 2010.49230957 C1603.67505863 2010.01817065 1608.83811599 2009.51717543 1614 2009 C1614.69307251 2008.9308136 1615.38614502 2008.8616272 1616.10021973 2008.79034424 C1640.91403598 2006.29282593 1665.45120852 2002.36133694 1690 1998 C1691.02181366 1997.81890686 1691.02181366 1997.81890686 1692.06427002 1997.63415527 C1708.53349247 1994.70603815 1724.77387141 1991.05433507 1741 1987 C1742.4725989 1986.6351851 1743.94524924 1986.27057773 1745.41796875 1985.90625 C1747.97198696 1985.27276317 1750.52336564 1984.63069708 1753.07421875 1983.984375 C1755.92574157 1983.26328349 1758.78316861 1982.57159538 1761.64453125 1981.890625 C1773.36793252 1979.07422018 1784.80244897 1975.63610059 1796.25756836 1971.88208008 C1799.17309412 1970.94432573 1802.10029762 1970.05237607 1805.03125 1969.1640625 C1813.43161677 1966.58934854 1821.74878221 1963.77735898 1830.0625 1960.9375 C1830.8932605 1960.65376526 1831.724021 1960.37003052 1832.57995605 1960.07769775 C1847.90539932 1954.8283394 1863.01722499 1949.16805857 1878 1943 C1879.09699219 1942.54915039 1880.19398437 1942.09830078 1881.32421875 1941.63378906 C1897.05853924 1935.13623409 1912.59096856 1928.23332217 1928 1921 C1929.00353516 1920.52981445 1930.00707031 1920.05962891 1931.04101562 1919.57519531 C1984.11840425 1894.62443052 2034.80466756 1864.89792532 2082.19921875 1830.31347656 C2083.51760957 1829.35185202 2084.83824155 1828.39329805 2086.16015625 1827.43652344 C2096.08317148 1820.25103453 2105.78017553 1812.87405827 2115.234375 1805.08203125 C2118.79214866 1802.15279761 2122.41927196 1799.32164032 2126.0625 1796.5 C2133.06843725 1791.04937882 2139.75544962 1785.25244324 2146.41845703 1779.390625 C2148.37626579 1777.66915561 2150.34490342 1775.96026503 2152.3125 1774.25 C2156.01338483 1771.0067083 2159.66467828 1767.7090075 2163.3125 1764.40625 C2165.48056366 1762.46507672 2167.66437857 1760.54712949 2169.859375 1758.63671875 C2182.27502496 1747.78316854 2193.95770374 1736.14439174 2205.625 1724.5 C2206.23541138 1723.89217682 2206.84582275 1723.28435364 2207.47473145 1722.65811157 C2216.3003614 1713.88557861 2216.3003614 1713.88557861 2224.59716797 1704.6171875 C2226.15331902 1702.82325353 2227.80480397 1701.16242552 2229.5 1699.5 C2232.53594925 1696.51127663 2235.34508659 1693.38293521 2238.125 1690.15625 C2240.17359094 1687.80037042 2242.27203002 1685.4949254 2244.375 1683.1875 C2248.24594954 1678.89877512 2251.91371894 1674.47891295 2255.546875 1669.98828125 C2258.79358317 1666.03329439 2262.13102239 1662.15984087 2265.48754883 1658.29785156 C2265.95700928 1657.75483398 2266.42646973 1657.21181641 2266.91015625 1656.65234375 C2267.37789603 1656.12202846 2267.84563581 1655.59171317 2268.32754952 1655.04532772 C2270.07405836 1652.98218782 2270.07405836 1652.98218782 2271.64108938 1650.49872774 C2276.40401001 1643.56932031 2276.40401001 1643.56932031 2280.58731472 1642.0770551 C2283.6579072 1641.73261747 2286.59172204 1641.7013047 2289.68080139 1641.77967834 C2291.42089789 1641.76391169 2291.42089789 1641.76391169 2293.19614786 1641.74782652 C2296.40001612 1641.72873259 2299.59989332 1641.75418764 2302.80339134 1641.79877794 C2306.26443449 1641.8359299 2309.72519335 1641.8150225 2313.18634033 1641.80117798 C2319.1806789 1641.78496222 2325.17401521 1641.80487967 2331.16819954 1641.8491993 C2339.85086727 1641.91307246 2348.53282427 1641.91860369 2357.21568685 1641.90960806 C2371.32553468 1641.89628589 2385.43495361 1641.92531104 2399.54467773 1641.9831543 C2413.21069019 1642.03904695 2426.87661135 1642.0826712 2440.54272461 1642.10424805 C2441.80379097 1642.10625272 2441.80379097 1642.10625272 2443.09033341 1642.10829789 C2452.28280452 1642.12247314 2461.47527365 1642.13219891 2470.66775417 1642.13734341 C2471.47749178 1642.1378082 2472.28722939 1642.138273 2473.1215045 1642.13875188 C2476.36018436 1642.14056839 2479.59886412 1642.14236361 2482.83754425 1642.14362305 C2492.29123889 1642.14744861 2501.74467683 1642.16480963 2511.19828158 1642.20711904 C2517.13617183 1642.23343255 2523.07403407 1642.25001647 2529.01197542 1642.25920237 C2532.43061027 1642.26500697 2535.84903569 1642.27586399 2539.26759148 1642.30040932 C2558.83469284 1642.47101379 2558.83469284 1642.47101379 2578 1639 C2578.74222337 1638.81318696 2579.48444674 1638.62637392 2580.24916172 1638.43389988 C2595.54602013 1634.37294914 2609.27817515 1626.50854748 2621 1616 C2621.67933594 1615.46246094 2622.35867187 1614.92492188 2623.05859375 1614.37109375 C2642.05850098 1599.1176471 2655.1398606 1572.60934365 2657.78466797 1548.61035156 C2660.44303047 1516.38448774 2653.62460166 1489.37450207 2633.375 1464.0625 C2631.93045553 1462.36318142 2630.47354519 1460.67423324 2629 1459 C2628.4740625 1458.39027344 2627.948125 1457.78054688 2627.40625 1457.15234375 C2609.05748524 1437.35252872 2581.47495537 1426.82168969 2555 1425 C2550.12342883 1424.86610525 2545.24856251 1424.87304507 2540.37060547 1424.88647461 C2538.92087303 1424.88675723 2537.47114044 1424.88659729 2536.02140808 1424.8860321 C2532.11508728 1424.88574705 2528.20879764 1424.8915964 2524.30248404 1424.89860606 C2520.20923619 1424.90488837 2516.11598751 1424.90544724 2512.0227356 1424.90663147 C2504.28467294 1424.90973047 2496.54662453 1424.91792445 2488.80856812 1424.92798096 C2479.99351195 1424.93918669 2471.17845507 1424.94466376 2462.36339355 1424.94967639 C2444.24225431 1424.96010835 2426.1211283 1424.9776799 2408 1425 C2408.39464447 1424.01829834 2408.78928894 1423.03659668 2409.19589233 1422.02514648 C2410.68981672 1418.30758069 2412.18144448 1414.58909671 2413.67245483 1410.87036133 C2414.31243389 1409.2750663 2414.95299776 1407.68000574 2415.59420776 1406.08520508 C2421.72384337 1390.83765398 2427.51613283 1375.49250153 2433 1360 C2433.25005798 1359.29472168 2433.50011597 1358.58944336 2433.75775146 1357.86279297 C2439.9104784 1340.48835565 2445.81850255 1323.16235286 2450.39404297 1305.29492188 C2451.3403174 1301.71112669 2452.42352291 1298.17136576 2453.5 1294.625 C2463.69496628 1260.49065177 2470.13521022 1225.21827529 2475.79052734 1190.08880615 C2476.04885353 1188.48550771 2476.30901112 1186.88250292 2476.57128906 1185.27984619 C2478.0547275 1176.17756672 2479.24475278 1167.09724109 2480.08325195 1157.91162109 C2480.17263283 1156.95249313 2480.2620137 1155.99336517 2480.35410309 1155.00517273 C2480.57140378 1152.67029291 2480.78666998 1150.33524536 2481 1148 C2481.74910827 1148.00075944 2482.49821655 1148.00151888 2483.27002507 1148.00230134 C2527.67840139 1148.04706749 2572.08677524 1148.08137819 2616.4951696 1148.10213066 C2621.82856688 1148.10463204 2627.16196412 1148.10722069 2632.49536133 1148.10986328 C2633.55713477 1148.1103879 2634.61890822 1148.11091252 2635.71285661 1148.11145304 C2652.89992635 1148.1201532 2670.0869827 1148.13592105 2687.27404449 1148.15430559 C2704.91246033 1148.17301544 2722.55086916 1148.18411902 2740.18929452 1148.18817699 C2751.07117812 1148.19091979 2761.95302386 1148.1995796 2772.83489581 1148.21583293 C2780.29924491 1148.22641319 2787.76357447 1148.22959826 2795.22793052 1148.22700275 C2799.53301068 1148.22572309 2803.83802473 1148.22767067 2808.14309311 1148.23841095 C2812.08942219 1148.24818407 2816.03564105 1148.24860868 2819.98197534 1148.24179779 C2821.4047749 1148.2409567 2822.82758149 1148.24345924 2824.25036732 1148.24976636 C2855.01547491 1148.37814488 2882.55746868 1136.4250069 2904.375 1115 C2909.24316978 1110.06526097 2913.34251745 1104.8845635 2917 1099 C2917.58265625 1098.10023437 2918.1653125 1097.20046875 2918.765625 1096.2734375 C2929.77006017 1078.52280511 2934.17562002 1058.89430491 2934.1875 1038.1875 C2934.20586914 1036.51977539 2934.20586914 1036.51977539 2934.22460938 1034.81835938 C2934.26789109 1010.16220723 2924.31060145 987.91646273 2909 969 C2908.46503906 968.32324219 2907.93007812 967.64648438 2907.37890625 966.94921875 C2892.03807209 948.19931033 2865.62636483 934.11392163 2841.58827496 931.21177685 C2835.88804431 930.74537474 2830.16228672 930.8672327 2824.44689941 930.87974548 C2822.96331625 930.87930903 2821.47973317 930.87843276 2819.99615049 930.87715632 C2815.93245195 930.87492591 2811.86877988 930.87891272 2807.80508471 930.88393438 C2803.41799961 930.88825959 2799.03091597 930.88679098 2794.64382935 930.8860321 C2787.04722236 930.88550818 2779.45062398 930.88864123 2771.85401917 930.89426994 C2760.87065248 930.90240277 2749.88728996 930.90500199 2738.90392059 930.90625793 C2721.08340564 930.90844565 2703.26289527 930.91509814 2685.44238281 930.92456055 C2668.13313825 930.93374192 2650.82389494 930.94081921 2633.51464844 930.94506836 C2632.44740581 930.94533108 2631.38016318 930.94559381 2630.28057986 930.94586449 C2624.92644744 930.94716954 2619.572315 930.94843325 2614.21818256 930.94967639 C2569.81211854 930.96004027 2525.4060595 930.97765097 2481 931 C2480.9000248 929.88250508 2480.9000248 929.88250508 2480.7980299 928.7424345 C2480.70952424 927.75965936 2480.62101858 926.77688421 2480.52983093 925.764328 C2480.4425558 924.79245639 2480.35528067 923.82058477 2480.26536083 922.8192625 C2479.91682086 919.11628319 2479.48638988 915.42794195 2479.01953125 911.73828125 C2478.92655258 910.99798172 2478.83357391 910.25768219 2478.73777771 909.49494934 C2474.5663934 876.61086105 2467.99684945 844.46225584 2460.50775146 812.18920898 C2460.0394628 810.17014685 2459.57357582 808.15052808 2459.10791016 806.13085938 C2455.82948413 791.95409639 2452.18376072 777.93638209 2448 764 C2447.69255859 762.96552734 2447.38511719 761.93105469 2447.06835938 760.86523438 C2436.8917867 726.76267623 2424.88071499 693.28473243 2410.82788086 660.58569336 C2410.41726032 659.62895344 2410.41726032 659.62895344 2409.99834442 658.65288544 C2409.33257121 657.10177696 2408.6663349 655.55086727 2408 654 C2408.78407982 653.99761165 2409.56815964 653.99522329 2410.37599945 653.99276257 C2429.51724608 653.93344283 2448.65836563 653.85778533 2467.79947662 653.76428509 C2477.05624752 653.71945544 2486.31298104 653.68001172 2495.56982422 653.65356445 C2503.64477968 653.63047988 2511.71961559 653.59696665 2519.79447603 653.55129844 C2524.06398529 653.52750622 2528.33337718 653.50868629 2532.60295105 653.50238609 C2536.63478898 653.49627111 2540.66632715 653.47604504 2544.69805336 653.44572449 C2546.16518878 653.43704564 2547.63236355 653.43320015 2549.09952354 653.43499184 C2563.49501663 653.44700374 2577.01427501 651.49998581 2590.3125 645.75 C2591.25182373 645.35377441 2592.19114746 644.95754883 2593.15893555 644.54931641 C2599.92366646 641.62806237 2606.08743303 638.43442523 2612 634 C2612.804375 633.401875 2613.60875 632.80375 2614.4375 632.1875 C2616.6564117 630.49412002 2618.82977788 628.75501197 2621 627 C2621.99 626.2575 2622.98 625.515 2624 624.75 C2628.65926509 620.8135018 2632.28359142 615.79873108 2636 611 C2636.61101563 610.21625 2637.22203125 609.4325 2637.8515625 608.625 C2645.36769153 598.46621374 2650.57939553 587.11255451 2654.4375 575.125 C2654.68443604 574.36517822 2654.93137207 573.60535645 2655.18579102 572.82250977 C2662.72237465 548.05407941 2658.92115047 517.68189107 2647.04052734 494.88232422 C2641.54461262 484.94016033 2634.91291387 476.15224586 2627 468 C2626.45214844 467.39027344 2625.90429688 466.78054688 2625.33984375 466.15234375 C2620.02517015 460.41980883 2613.57667613 456.14647892 2607 452 C2606.4328125 451.64228516 2605.865625 451.28457031 2605.28125 450.91601562 C2594.61267295 444.35726542 2583.15772495 440.80118354 2571 438 C2570.3252642 437.83678717 2569.65052839 437.67357435 2568.95534605 437.50541568 C2562.26463611 436.00732469 2555.92823732 435.74222651 2549.08973694 435.81573486 C2547.92922504 435.81982038 2546.76871315 435.8239059 2545.57303423 435.82811522 C2542.37872161 435.84108879 2539.18461611 435.86300598 2535.99038422 435.88855243 C2532.53500171 435.91379678 2529.07957321 435.92693976 2525.62413025 435.94102478 C2520.41700527 435.9631481 2515.20991725 435.98868923 2510.00282895 436.01821139 C2499.770246 436.07576414 2489.53776239 436.10347348 2479.30503845 436.12005615 C2477.69103067 436.12279708 2476.0770229 436.12554185 2474.46301514 436.12829041 C2471.19632043 436.13376273 2467.92962549 436.13907451 2464.66293037 436.14429808 C2456.27927012 436.15780512 2447.8956144 436.17272889 2439.51196289 436.19091797 C2438.67116873 436.1927307 2437.83037456 436.19454344 2436.96410178 436.1964111 C2423.33399566 436.22715652 2409.70442744 436.30150765 2396.0745898 436.39006272 C2382.0608467 436.47992091 2368.04765772 436.51628857 2354.03362936 436.50493121 C2345.39963442 436.49974399 2336.76795533 436.53689854 2328.13444101 436.62902811 C2322.21630936 436.68832299 2316.29949734 436.69608332 2310.38116247 436.6638231 C2306.96968764 436.64677973 2303.56223795 436.65212667 2300.15129471 436.71933556 C2278.5979762 437.07454188 2278.5979762 437.07454188 2273.0094738 431.91887665 C2270.08058102 428.56073646 2268.06737539 424.93269753 2266 421 C2264.8794379 419.57810179 2263.72609901 418.17930188 2262.50390625 416.84375 C2261.76998657 416.00432861 2261.76998657 416.00432861 2261.02124023 415.14794922 C2260.53985596 414.60412598 2260.05847168 414.06030273 2259.5625 413.5 C2258.46048746 412.24258178 2257.35893582 410.98475948 2256.2578125 409.7265625 C2255.71543945 409.10813477 2255.17306641 408.48970703 2254.61425781 407.85253906 C2252.53122693 405.46203115 2250.47930562 403.04595607 2248.42749023 400.62866211 C2243.62236724 394.97321422 2238.72441862 389.42428215 2233.65811157 384.00108337 C2231.24463755 381.41740896 2228.8424714 378.8264909 2226.46582031 376.20874023 C2218.01824439 366.92062894 2209.18661349 358.03393714 2200.29882812 349.16845703 C2197.73711354 346.6121407 2195.18083894 344.05047071 2192.625 341.48828125 C2190.97427914 339.83822067 2189.3232484 338.18847002 2187.671875 336.5390625 C2186.91960632 335.78476959 2186.16733765 335.03047668 2185.39227295 334.25332642 C2181.31665762 330.19551822 2177.1578927 326.29726012 2172.79302979 322.55148315 C2169.7862099 319.9497247 2166.90017261 317.21929634 2164 314.5 C2159.07491638 309.90845669 2154.12533657 305.36851117 2149 301 C2148.07316406 300.2059375 2147.14632812 299.411875 2146.19140625 298.59375 C2125.80824316 281.19496798 2104.69923538 264.72299071 2083 249 C2082.33806641 248.51917969 2081.67613281 248.03835937 2080.99414062 247.54296875 C2010.11832209 196.24650477 1931.64150303 154.67747086 1772.81982422 99.77148438 C1770.80939759 99.22144557 1768.80079371 98.66472625 1766.79345703 98.10351562 C1709.87695898 82.19883458 1651.53418232 72.64688382 1592.6875 67.75 C1591.20268127 67.62510193 1591.20268127 67.62510193 1589.68786621 67.49768066 C1564.73949494 65.42827366 1539.82035395 64.82958638 1514.79223633 64.86962891 C1510.80481188 64.87501038 1506.8174993 64.86963026 1502.83007812 64.86328125 C1479.15757953 64.85506074 1455.70662901 65.83749917 1432.125 67.875 Z " fill="#FEFEFE" transform="translate(0,0)"/>
<path d="M0 0 C3.98107738 0.00535124 7.96204128 0.00002167 11.94311523 -0.00634766 C38.28203552 -0.0161134 64.38458515 1.059511 90.62084961 3.38037109 C91.88525879 3.49119019 93.14966797 3.60200928 94.45239258 3.71618652 C115.14493935 5.54333866 135.69275149 7.70583812 156.18334961 11.13037109 C157.57206268 11.36207001 157.57206268 11.36207001 158.98883057 11.59844971 C186.59188357 16.22818453 214.00563082 21.42983317 241.18334961 28.13037109 C242.37814941 28.42121582 243.57294922 28.71206055 244.80395508 29.01171875 C289.88479568 40.04768963 334.4445442 55.32166824 377.21820068 73.30474854 C379.15971451 74.12044123 381.10320342 74.93126149 383.04711914 75.74121094 C402.46690027 83.85177509 421.40727938 92.85788161 440.26745605 102.18511963 C442.10822612 103.09330714 443.95131031 103.99655669 445.7956543 104.89746094 C461.24700041 112.44779957 476.33024153 120.46245642 491.18334961 129.13037109 C492.26261719 129.7584668 493.34188477 130.3865625 494.45385742 131.03369141 C516.56966967 143.93405153 538.18248029 157.47892234 559.18334961 172.13037109 C559.89797363 172.62746582 560.61259766 173.12456055 561.34887695 173.63671875 C582.29413219 188.22676916 602.54708074 203.56174459 622.20288086 219.84130859 C624.56488905 221.79726808 626.93284628 223.74433017 629.32006836 225.66943359 C634.93129098 230.20003559 640.31911903 234.90965842 645.62866211 239.79052734 C647.81032775 241.78871958 650.0134627 243.75185998 652.24584961 245.69287109 C667.97748932 259.39462181 683.00879456 273.78690873 697.73852539 288.55517578 C700.20466303 291.02673134 702.67618065 293.49281813 705.14819336 295.95849609 C706.74356658 297.55452932 708.33863 299.15087229 709.93334961 300.74755859 C710.65949463 301.47167938 711.38563965 302.19580017 712.13378906 302.94186401 C716.1298778 306.95616015 719.95891938 311.061736 723.64993286 315.35884094 C726.04369233 318.12431032 728.55631346 320.77577299 731.05834961 323.44287109 C735.576443 328.29386178 739.83033168 333.28996385 743.98022461 338.46240234 C746.25262778 341.21426647 748.63029792 343.82775253 751.05834961 346.44287109 C757.27933804 353.19931236 763.65398017 360.48427198 768.53416288 368.29133093 C770.02919635 370.31395978 770.02919635 370.31395978 772.34819472 370.6266731 C773.19622833 370.62493955 774.04426194 370.62320599 774.91799355 370.62141991 C775.89783356 370.6291673 776.87767358 370.6369147 777.88720572 370.64489686 C778.96644352 370.63304373 780.04568132 370.62119059 781.15762329 370.60897827 C782.30227629 370.61224613 783.44692929 370.61551399 784.62626874 370.61888087 C787.80951145 370.62406133 790.99211405 370.61130947 794.17527938 370.59122229 C797.60723095 370.57396673 801.03914805 370.57984025 804.47113037 370.58317566 C810.42483439 370.58603956 816.37838081 370.5749376 822.33205032 370.55509567 C830.96731484 370.5268677 839.60241703 370.52637805 848.2377166 370.53377874 C862.28324826 370.54561946 876.3287387 370.54401319 890.37426758 370.52978516 C891.21534791 370.5289399 892.05642824 370.52809465 892.92299585 370.52722378 C902.27866691 370.51752502 911.63432893 370.50459408 920.98999023 370.48797607 C924.36808262 370.48201988 927.74617505 370.47609176 931.12426758 370.47021484 C931.95765107 370.46875853 932.79103457 370.46730221 933.64967211 370.46580176 C947.61574364 370.44204482 961.58170932 370.44181214 975.54778898 370.45948851 C984.14290984 370.4693773 992.73755104 370.45958976 1001.33260362 370.4233817 C1007.24733256 370.39995889 1013.16182042 370.3986143 1019.07657547 370.41358541 C1022.47448625 370.42147284 1025.87105869 370.41682544 1029.26897049 370.39159584 C1050.40169324 370.2432561 1072.10768873 372.17543437 1091.18334961 382.13037109 C1092.31514648 382.71560547 1093.44694336 383.30083984 1094.61303711 383.90380859 C1102.53365073 388.1453143 1109.50119386 393.08883499 1116.18334961 399.13037109 C1117.09858398 399.95150391 1118.01381836 400.77263672 1118.95678711 401.61865234 C1133.33704341 415.21343246 1143.204997 433.04668608 1148.18334961 452.13037109 C1148.48241211 453.13583984 1148.78147461 454.14130859 1149.08959961 455.17724609 C1156.16513394 482.03807087 1150.37041928 511.9306786 1136.67260742 535.66040039 C1133.05974537 541.63144534 1128.7801909 546.88311632 1124.18334961 552.13037109 C1123.51174805 552.98501953 1122.84014648 553.83966797 1122.14819336 554.72021484 C1116.66009147 561.45214102 1109.36548131 566.36445037 1102.18334961 571.13037109 C1101.47178711 571.62279297 1100.76022461 572.11521484 1100.02709961 572.62255859 C1094.5110096 576.21578624 1088.62122506 578.80443108 1082.55834961 581.31787109 C1081.7779834 581.65101318 1080.99761719 581.98415527 1080.19360352 582.32739258 C1067.28759039 587.49629632 1053.89340554 588.57954167 1040.13842773 588.56274414 C1038.60898564 588.57179156 1037.07955072 588.5821259 1035.55012512 588.59362793 C1031.45407585 588.62087491 1027.3581653 588.63043774 1023.26203728 588.636482 C1018.96056646 588.64595111 1014.65919591 588.67216037 1010.35778809 588.69648743 C1002.23745983 588.73992374 994.11715128 588.76861039 985.99674273 588.79181081 C976.74135023 588.81898611 967.48605977 588.86288927 958.23074055 588.90809953 C939.21499768 589.00061771 920.19922778 589.07244761 901.18334961 589.13037109 C901.54770111 589.99122818 901.91205261 590.85208527 902.28744507 591.73902893 C903.67014054 595.00986657 905.05017227 598.2818038 906.42855835 601.55445862 C907.0196174 602.95635914 907.61166031 604.35784535 908.20480347 605.75886536 C914.38755028 620.36639993 919.91538296 635.16856593 925.18334961 650.13037109 C925.422229 650.80789429 925.6611084 651.48541748 925.90722656 652.18347168 C936.65362711 682.69550984 936.65362711 682.69550984 940.57348633 696.93847656 C941.28010275 699.47810918 942.01475786 702.00896485 942.74975586 704.54052734 C955.87467823 750.08382126 965.77208028 796.65447636 971.99584961 843.63037109 C972.16302994 844.88960892 972.16302994 844.88960892 972.33358765 846.17428589 C972.64875694 848.56533183 972.95836738 850.95701553 973.26538086 853.34912109 C973.35884796 854.06238052 973.45231506 854.77563995 973.5486145 855.51051331 C973.9984951 859.08025314 974.22083282 862.53603215 974.18334961 866.13037109 C974.93706954 866.12961165 975.69078948 866.12885221 976.46734941 866.12806976 C1021.14287747 866.08330972 1065.81840309 866.048996 1110.49394908 866.02824043 C1115.85867768 866.02573903 1121.22340623 866.02315039 1126.58813477 866.02050781 C1127.65615175 866.01998319 1128.72416873 866.01945857 1129.82454987 866.01891805 C1147.11575955 866.0102164 1164.40695592 865.99444773 1181.69815771 865.9760655 C1199.44165988 865.95735981 1217.18515509 865.94625295 1234.92866671 865.9421941 C1245.87657846 865.93945044 1256.8244526 865.93078595 1267.77235277 865.91453816 C1275.28061305 865.90396303 1282.7888539 865.90077167 1290.29712109 865.90336834 C1294.62840565 865.9046488 1298.95962451 865.9026913 1303.29089737 865.89196014 C1307.25999583 865.88219831 1311.22898465 865.88175517 1315.19808824 865.8885733 C1316.6302912 865.88941548 1318.06250111 865.88690333 1319.49469046 865.88060473 C1327.31508626 865.84822495 1334.59045041 866.19653931 1342.18334961 868.13037109 C1342.91385949 868.30717624 1343.64436938 868.48398138 1344.39701593 868.66614425 C1373.84301556 875.90877664 1397.26459489 893.84080376 1413.11694336 919.59912109 C1417.81050501 927.47690849 1421.20894845 935.73126958 1423.99584961 944.44287109 C1424.3066748 945.41135986 1424.3066748 945.41135986 1424.6237793 946.39941406 C1432.60971158 972.6937358 1426.63793557 1003.86991985 1414.17944336 1027.66162109 C1404.95424577 1044.06608686 1392.2173614 1057.29642695 1376.18334961 1067.13037109 C1375.07991211 1067.81744141 1373.97647461 1068.50451172 1372.83959961 1069.21240234 C1355.20690269 1079.64510196 1335.91793817 1083.29512849 1315.70617676 1083.25062561 C1314.2308432 1083.25106207 1312.75550971 1083.25193835 1311.28017664 1083.25321478 C1307.23928118 1083.25544507 1303.19841236 1083.25145853 1299.15752029 1083.24643672 C1294.79497531 1083.24211134 1290.43243178 1083.24358012 1286.06988525 1083.24433899 C1278.5158401 1083.2448629 1270.9618036 1083.24172996 1263.40776062 1083.23610115 C1252.48593212 1083.22796818 1241.56410779 1083.22536909 1230.64227659 1083.22411316 C1212.92159022 1083.22192547 1195.20090847 1083.21527304 1177.48022461 1083.20581055 C1160.26798526 1083.19662912 1143.05574716 1083.18955186 1125.84350586 1083.18530273 C1124.2516029 1083.18490865 1124.2516029 1083.18490865 1122.62754029 1083.1845066 C1117.30337601 1083.18320155 1111.97921171 1083.18193784 1106.65504742 1083.1806947 C1062.49781162 1083.17033089 1018.34058085 1083.15272025 974.18334961 1083.13037109 C974.12721676 1083.73339188 974.0710839 1084.33641267 974.01325005 1084.95770681 C973.75565209 1087.71691455 973.4960898 1090.47593419 973.23649597 1093.23495483 C973.14823028 1094.1835459 973.05996459 1095.13213697 972.96902418 1096.10947323 C972.3499445 1102.66914031 971.57033427 1109.16934108 970.48413086 1115.66943359 C970.32857727 1116.63217194 970.17302368 1117.59491028 970.01275635 1118.58682251 C969.51549416 1121.64445266 969.0068891 1124.70001565 968.49584961 1127.75537109 C968.31972137 1128.81896851 968.14359314 1129.88256592 967.96212769 1130.97839355 C961.73644464 1168.51523974 954.57326308 1206.21087316 942.99145508 1242.51586914 C942.12753267 1245.31095829 941.3096575 1248.11824292 940.49478149 1250.92796326 C937.72503812 1260.46405014 934.71312659 1269.9027352 931.55834961 1279.31787109 C931.17101151 1280.47615417 931.17101151 1280.47615417 930.77584839 1281.65783691 C923.61000323 1303.05010089 915.8737763 1324.16915109 907.33569336 1345.05224609 C906.73456535 1346.52662102 906.13361241 1348.00106733 905.53283691 1349.47558594 C904.08501368 1353.02800274 902.6348633 1356.5794607 901.18334961 1360.13037109 C901.92527778 1360.12852751 902.66720594 1360.12668392 903.43161678 1360.12478447 C921.55500144 1360.08045278 939.67837516 1360.0474407 957.80180264 1360.02674675 C966.56645605 1360.01647116 975.33107308 1360.00248267 984.09570312 1359.97949219 C991.74246928 1359.95944368 999.38920907 1359.94662771 1007.03600079 1359.9421941 C1011.07807977 1359.93960596 1015.12008337 1359.93360199 1019.16213799 1359.91891098 C1057.49966721 1359.78530411 1088.07899942 1363.9568437 1118.18334961 1390.13037109 C1119.11920898 1390.93861328 1119.11920898 1390.93861328 1120.07397461 1391.76318359 C1128.95966731 1400.02604737 1135.91902281 1411.2858579 1141.18334961 1422.13037109 C1141.69639648 1423.17322266 1142.20944336 1424.21607422 1142.73803711 1425.29052734 C1153.95215037 1449.58777274 1155.05081193 1479.20868863 1146.35375977 1504.54736328 C1135.42177995 1533.52155368 1114.88445278 1555.1792552 1087.16381836 1568.59130859 C1073.42564977 1574.66037905 1059.54770975 1577.31023083 1044.59588623 1577.20111084 C1043.43385406 1577.19687646 1042.27182189 1577.19264208 1041.07457662 1577.18827939 C1037.86215096 1577.17583467 1034.64978281 1577.15894589 1031.4373877 1577.14041209 C1027.96761777 1577.1216383 1024.49782645 1577.10898714 1021.0280304 1577.09611511 C1019.57763524 1577.09066891 1018.12724014 1577.08521041 1016.67684507 1577.07974005 C1015.94592459 1577.07698637 1015.2150041 1577.0742327 1014.46193451 1577.07139558 C1012.19115818 1577.06257234 1009.92038566 1577.05305841 1007.6496129 1577.04336405 C996.5939057 1576.99675041 985.53827899 1576.9716085 974.48248291 1576.95928955 C973.68203421 1576.95836747 972.88158552 1576.95744539 972.0568808 1576.95649537 C964.62667099 1576.9480636 957.19646008 1576.94100028 949.76624823 1576.93463278 C944.67562611 1576.93018194 939.5850053 1576.92493637 934.49438477 1576.91894531 C933.22616284 1576.91746793 933.22616284 1576.91746793 931.93232027 1576.9159607 C918.23415923 1576.89870091 904.53649159 1576.83847231 890.83854052 1576.76332566 C876.76159568 1576.68716762 862.68516412 1576.66055348 848.60802293 1576.67885804 C839.93217569 1576.6885196 831.25825213 1576.65935975 822.58275566 1576.57990596 C816.63377903 1576.52905719 810.68597144 1576.52617412 804.73688188 1576.56053618 C801.30744384 1576.57892019 797.88143644 1576.57654157 794.45239449 1576.51678276 C780.00711899 1575.61560303 780.00711899 1575.61560303 767.21518707 1580.9393692 C764.28587185 1584.04205633 762.27748623 1587.42645026 760.18334961 1591.13037109 C758.75829533 1592.94861911 757.30497161 1594.74556197 755.80834961 1596.50537109 C755.08647461 1597.39095703 754.36459961 1598.27654297 753.62084961 1599.18896484 C745.88531187 1608.52367625 737.84392864 1617.58302768 729.61303711 1626.48193359 C727.51275826 1628.77130507 725.46169773 1631.08998727 723.43334961 1633.44287109 C720.76219184 1636.52742233 717.93991126 1639.39842498 715.02735901 1642.25392151 C713.2383703 1644.07438247 711.57292074 1645.95318575 709.91357422 1647.8918457 C706.42458184 1651.90288901 702.76392707 1655.69495826 698.99975586 1659.44677734 C698.34055649 1660.10693344 697.68135712 1660.76708954 697.00218201 1661.44725037 C695.61938126 1662.83072615 694.23533885 1664.21296193 692.85009766 1665.59399414 C690.75104618 1667.68768779 688.65739021 1669.78666984 686.56420898 1671.88623047 C685.20971175 1673.2400668 683.8549043 1674.59359285 682.49975586 1675.94677734 C681.88491837 1676.56363907 681.27008087 1677.18050079 680.63661194 1677.8160553 C676.89740758 1681.53553137 673.04361899 1685.07004335 669.0453949 1688.50987244 C665.84387242 1691.29608978 662.77154622 1694.21992111 659.68334961 1697.13037109 C654.597561 1701.89634975 649.49625295 1706.6169332 644.18334961 1711.13037109 C642.81243164 1712.30212891 642.81243164 1712.30212891 641.41381836 1713.49755859 C638.01774482 1716.39200042 634.60391091 1719.26492819 631.18334961 1722.13037109 C630.53156738 1722.6764502 629.87978516 1723.2225293 629.20825195 1723.78515625 C619.43109546 1731.9557487 609.47416138 1739.83666956 599.30834961 1747.51708984 C597.17433494 1749.13721495 595.05225994 1750.77180262 592.93334961 1752.41162109 C591.86503906 1753.23617798 591.86503906 1753.23617798 590.77514648 1754.07739258 C589.4672549 1755.08746711 588.16098981 1756.0996553 586.85717773 1757.11499023 C573.50943973 1767.38923594 559.45274662 1776.74497677 545.43334961 1786.06787109 C544.65031464 1786.58917603 543.86727966 1787.11048096 543.06051636 1787.64758301 C517.19108025 1804.85594861 490.58264044 1820.48295146 463.18334961 1835.13037109 C462.17626953 1835.66887695 461.16918945 1836.20738281 460.1315918 1836.76220703 C413.81929501 1861.40742741 365.61687371 1881.20246924 316.18334961 1898.63037109 C314.9497319 1899.06783157 314.9497319 1899.06783157 313.69119263 1899.51412964 C302.93629452 1903.31876613 292.13674699 1906.67195624 281.11354065 1909.61027527 C278.19028177 1910.39795623 275.28080389 1911.23259796 272.37084961 1912.06787109 C271.24549805 1912.38884766 270.12014648 1912.70982422 268.96069336 1913.04052734 C266.15734057 1913.84935405 263.35907969 1914.67068557 260.56225586 1915.50146484 C205.08090116 1931.85982925 147.06795582 1940.57248852 89.55834961 1945.81787109 C88.26904541 1945.93735107 86.97974121 1946.05683105 85.65136719 1946.17993164 C57.91705856 1948.58865312 30.06236498 1948.45771775 2.24584961 1948.50537109 C1.15739872 1948.5073777 0.06894783 1948.50938431 -1.05248642 1948.51145172 C-35.22039799 1948.56008071 -68.86557388 1947.74800315 -102.80957031 1943.50396729 C-105.86721579 1943.12408891 -108.92645818 1942.76078021 -111.98657227 1942.40136719 C-135.78171755 1939.5888563 -159.34395763 1935.9417891 -182.81665039 1931.13037109 C-183.72334473 1930.94764648 -184.63003906 1930.76492188 -185.56420898 1930.57666016 C-190.14834042 1929.65172036 -194.72210165 1928.68696097 -199.28979492 1927.68408203 C-202.24386057 1927.03675634 -205.20029302 1926.40068415 -208.15649414 1925.76318359 C-222.81187907 1922.57927949 -237.35217769 1919.0931324 -251.81665039 1915.13037109 C-252.66291992 1914.89882324 -253.50918945 1914.66727539 -254.38110352 1914.42871094 C-304.25994218 1900.68005669 -352.85354556 1882.83936064 -399.81665039 1861.13037109 C-401.16233448 1860.51070084 -402.5080385 1859.89107389 -403.85375977 1859.27148438 C-430.46102522 1847.00113145 -456.47141423 1833.85703438 -481.81665039 1819.13037109 C-483.4239502 1818.20272949 -483.4239502 1818.20272949 -485.0637207 1817.25634766 C-501.60619672 1807.67058639 -517.65865253 1797.42232155 -533.56665039 1786.81787109 C-534.44326324 1786.23439911 -535.3198761 1785.65092712 -536.22305298 1785.04977417 C-551.97255978 1774.54819324 -567.40922363 1763.63868431 -582.44165039 1752.13037109 C-583.31281494 1751.46521484 -584.18397949 1750.80005859 -585.08154297 1750.11474609 C-592.56305866 1744.37647626 -599.89173181 1738.46419736 -607.17260742 1732.47460938 C-609.4085558 1730.64640448 -611.67458869 1728.85726988 -613.94165039 1727.06787109 C-623.39373287 1719.52209096 -632.46779476 1711.52608753 -641.37915039 1703.35302734 C-643.45937764 1701.45615346 -645.56221937 1699.59644167 -647.69165039 1697.75537109 C-656.54439387 1690.03851934 -665.03885969 1681.99353579 -673.28759766 1673.63793945 C-676.08129988 1670.82041397 -678.89933072 1668.1206933 -681.94165039 1665.56787109 C-685.77926239 1662.30830944 -689.10095841 1658.62854157 -692.46069336 1654.89282227 C-695.88391859 1651.10134991 -699.42996065 1647.4668996 -703.06665039 1643.88037109 C-706.84303115 1640.14682263 -710.47682107 1636.35579239 -713.91821289 1632.31005859 C-715.93668409 1629.99255463 -718.02043364 1627.74797486 -720.11816406 1625.50244141 C-725.19194506 1620.07046485 -730.02470629 1614.53216052 -734.67993164 1608.73193359 C-736.77547533 1606.18050381 -738.95628194 1603.74710336 -741.19165039 1601.31787109 C-747.21637735 1594.70976388 -753.42569628 1587.56921422 -758.16498685 1579.96773773 C-759.66604303 1577.94265911 -759.66604303 1577.94265911 -762.01223826 1577.63061708 C-762.87480589 1577.63072442 -763.73737352 1577.63083176 -764.62607956 1577.63094234 C-765.62253675 1577.62134485 -766.61899395 1577.61174736 -767.64564681 1577.60185903 C-769.29224457 1577.6165692 -769.29224457 1577.6165692 -770.97210693 1577.63157654 C-772.13606625 1577.62619198 -773.30002556 1577.62080743 -774.49925637 1577.61525971 C-777.73598104 1577.60425645 -780.9721059 1577.61119972 -784.2087996 1577.62554276 C-787.69784501 1577.63663613 -791.18681765 1577.6246706 -794.67585754 1577.61535645 C-800.7261472 1577.60224761 -806.77629877 1577.60344355 -812.82659149 1577.61395073 C-821.59066251 1577.62888635 -830.35457151 1577.61897712 -839.1186333 1577.60243154 C-853.35863422 1577.57594687 -867.59859885 1577.56511224 -881.83862305 1577.56616211 C-882.69129833 1577.56622043 -883.5439736 1577.56627875 -884.42248753 1577.56633884 C-887.8763838 1577.56660464 -891.33028007 1577.5669219 -894.78417633 1577.5673021 C-904.26619292 1577.56826629 -913.7482084 1577.56694367 -923.23022461 1577.56420898 C-924.07822312 1577.56396909 -924.92622163 1577.5637292 -925.79991707 1577.56348204 C-939.97158778 1577.55906557 -954.14322493 1577.54278901 -968.31487584 1577.51898819 C-977.04807696 1577.50495772 -985.78114997 1577.5020015 -994.51435539 1577.51361109 C-1000.51072683 1577.52096986 -1006.50703407 1577.51782369 -1012.5033994 1577.50665265 C-1015.95639693 1577.50061708 -1019.40921436 1577.49938806 -1022.86219978 1577.51152992 C-1049.56062499 1577.58756137 -1049.56062499 1577.58756137 -1061.81665039 1574.13037109 C-1062.5943919 1573.91310584 -1063.37213341 1573.69584059 -1064.17344284 1573.47199154 C-1079.23903036 1568.82698014 -1093.2241641 1560.75827834 -1104.81665039 1550.13037109 C-1106.20303711 1548.86580078 -1106.20303711 1548.86580078 -1107.61743164 1547.57568359 C-1114.41071471 1541.09246739 -1119.90243049 1534.12051185 -1124.81665039 1526.13037109 C-1125.16856445 1525.56366699 -1125.52047852 1524.99696289 -1125.88305664 1524.41308594 C-1140.22835307 1500.83730588 -1144.78929215 1471.43955669 -1138.5871582 1444.59716797 C-1136.89135073 1437.87771204 -1134.65482028 1431.45591103 -1131.81665039 1425.13037109 C-1131.17276367 1423.66083984 -1131.17276367 1423.66083984 -1130.51586914 1422.16162109 C-1122.18545327 1404.32749134 -1107.95714498 1387.09071492 -1090.81665039 1377.13037109 C-1089.90858643 1376.6015332 -1089.90858643 1376.6015332 -1088.98217773 1376.06201172 C-1069.69818138 1364.97893512 -1050.24898377 1359.61209269 -1027.97705078 1359.78979492 C-1026.45761634 1359.79064387 -1024.93818068 1359.79016085 -1023.41874695 1359.78846741 C-1019.34527348 1359.78761645 -1015.27207205 1359.80509406 -1011.19866109 1359.82618928 C-1006.92261129 1359.84510835 -1002.64655334 1359.84671839 -998.37046814 1359.8502655 C-990.29606784 1359.85954168 -982.22179128 1359.88409464 -974.14744514 1359.91431397 C-964.94535519 1359.94799692 -955.74325893 1359.96437871 -946.54112256 1359.97940028 C-927.63289535 1360.01064883 -908.72478287 1360.06332193 -889.81665039 1360.13037109 C-890.24462559 1359.15255472 -890.24462559 1359.15255472 -890.68124676 1358.15498447 C-891.9912958 1355.15929843 -893.29888543 1352.16254478 -894.60644531 1349.16577148 C-895.05521782 1348.14055641 -895.50399033 1347.11534134 -895.966362 1346.05905914 C-899.63010297 1337.65473335 -902.98651673 1329.17833442 -906.12915039 1320.56787109 C-906.39301544 1319.85155518 -906.65688049 1319.13523926 -906.92874146 1318.3972168 C-911.36154195 1306.36319977 -915.59900911 1294.26277538 -919.75415039 1282.13037109 C-920.01733063 1281.36256317 -920.28051086 1280.59475525 -920.55166626 1279.80368042 C-931.24219103 1248.54019156 -931.24219103 1248.54019156 -934.37915039 1235.06787109 C-935.88128005 1228.83946934 -937.48809113 1222.66384706 -939.25415039 1216.50537109 C-944.72708596 1197.05244572 -948.66348746 1177.25729695 -952.56665039 1157.44287109 C-952.76319214 1156.45113892 -952.95973389 1155.45940674 -953.16223145 1154.43762207 C-955.41727722 1143.02643899 -957.41321641 1131.68044144 -958.81665039 1120.13037109 C-959.0835214 1118.21296434 -959.3552982 1116.29623096 -959.63305664 1114.38037109 C-959.75745117 1113.50380859 -959.8818457 1112.62724609 -960.01000977 1111.72412109 C-960.25618167 1109.99440529 -960.50618534 1108.26523051 -960.76000977 1106.53662109 C-961.52009818 1101.12447321 -962.01636072 1095.7246535 -962.359375 1090.27099609 C-962.40398613 1089.58150879 -962.44859726 1088.89202148 -962.49456024 1088.18164062 C-962.60330018 1086.49797245 -962.71016881 1084.8141836 -962.81665039 1083.13037109 C-963.56847172 1083.13151025 -964.32029306 1083.13264942 -965.09489685 1083.1338231 C-1009.68722731 1083.2010064 -1054.27955225 1083.25245557 -1098.87192321 1083.28356708 C-1104.23020801 1083.28731905 -1109.5884927 1083.29120203 -1114.94677734 1083.29516602 C-1116.01348278 1083.29595295 -1117.08018821 1083.29673988 -1118.17921805 1083.29755066 C-1135.43472617 1083.3105926 -1152.69020421 1083.33423976 -1169.94569451 1083.36182948 C-1187.66096947 1083.38991741 -1205.37622871 1083.40655451 -1223.09152502 1083.41263658 C-1234.01641083 1083.41674599 -1244.94121159 1083.42970953 -1255.86607122 1083.45412049 C-1263.36502852 1083.47001952 -1270.86394207 1083.47476204 -1278.36291499 1083.47087523 C-1282.68472521 1083.46896015 -1287.00638715 1083.47182595 -1291.32817078 1083.48798752 C-1295.29449018 1083.50271054 -1299.26056321 1083.50324413 -1303.22689455 1083.49306778 C-1304.65245983 1083.49181221 -1306.07804122 1083.49551209 -1307.50357533 1083.50502064 C-1320.15485214 1083.584415 -1332.31705637 1081.84529012 -1344.25415039 1077.50537109 C-1344.95096924 1077.2544873 -1345.64778809 1077.00360352 -1346.36572266 1076.74511719 C-1358.39330254 1072.21125958 -1369.15636293 1065.58312262 -1378.81665039 1057.13037109 C-1379.54883789 1056.54126953 -1380.28102539 1055.95216797 -1381.03540039 1055.34521484 C-1401.18311309 1038.63822069 -1413.87041771 1011.92282914 -1416.81665039 986.13037109 C-1418.53988395 955.83338308 -1411.26854988 926.88999233 -1391.04321289 903.57177734 C-1390.30844727 902.76611328 -1389.57368164 901.96044922 -1388.81665039 901.13037109 C-1388.14375977 900.37626953 -1387.47086914 899.62216797 -1386.77758789 898.84521484 C-1372.205117 883.372198 -1353.30644149 873.26184351 -1332.81665039 868.13037109 C-1332.14114848 867.95630804 -1331.46564656 867.78224499 -1330.7696749 867.6029073 C-1323.17229479 865.85958944 -1315.70678802 865.85592963 -1307.94711304 865.88986206 C-1306.45355361 865.88898867 -1304.95999449 865.88723523 -1303.46643698 865.88468373 C-1299.38442417 865.88023245 -1295.30251721 865.88818317 -1291.22051787 865.89823985 C-1286.8102913 865.9069042 -1282.40007034 865.90395208 -1277.98983765 865.9024353 C-1270.35615 865.90138834 -1262.72249663 865.90764523 -1255.0888176 865.91891098 C-1244.05190328 865.93518857 -1233.01500548 865.9403763 -1221.97808047 865.94288696 C-1204.06993163 865.94726052 -1186.16180104 865.96056042 -1168.25366211 865.97949219 C-1150.86108491 865.99785977 -1133.46851268 866.01201198 -1116.07592773 866.02050781 C-1114.46689097 866.02129598 -1114.46689097 866.02129598 -1112.82534842 866.02210008 C-1107.44378915 866.02471022 -1102.06222983 866.02723762 -1096.6806705 866.02972388 C-1052.05931782 866.05044582 -1007.43798505 866.08566211 -962.81665039 866.13037109 C-962.72101303 864.62579346 -962.72101303 864.62579346 -962.6234436 863.09082031 C-962.53638882 861.74722835 -962.44925701 860.40364137 -962.36206055 859.06005859 C-962.23548569 857.09141846 -962.23548569 857.09141846 -962.10635376 855.08300781 C-959.72280326 822.56247047 -953.26219729 789.84321063 -945.55493164 758.21044922 C-944.76971754 754.93456923 -944.02330262 751.65159488 -943.28540039 748.36474609 C-940.87587492 737.64381481 -938.36603156 727.02549744 -935.13696289 716.52099609 C-934.15014983 713.29710909 -933.2447093 710.05869021 -932.37133789 706.80224609 C-921.60887966 666.80639852 -908.37701562 625.25110155 -889.81665039 588.13037109 C-891.00684863 588.13590185 -891.00684863 588.13590185 -892.22109127 588.14154434 C-911.59622703 588.23017677 -930.97132192 588.29621689 -950.3466177 588.33761978 C-959.71666721 588.35817802 -969.08658077 588.38616852 -978.45654297 588.43212891 C-986.63068699 588.47220433 -994.80473247 588.49785277 -1002.97897202 588.50672507 C-1007.30059877 588.51190506 -1011.62194378 588.52393636 -1015.94347954 588.55329132 C-1020.02535386 588.58078917 -1024.10683502 588.58874813 -1028.18879318 588.58280182 C-1029.67328987 588.58388692 -1031.1578021 588.59163371 -1032.64221764 588.60719299 C-1060.10736155 588.88053546 -1085.24938936 577.92474242 -1105.81665039 560.13037109 C-1106.6377832 559.42396484 -1107.45891602 558.71755859 -1108.30493164 557.98974609 C-1128.77707766 538.93574163 -1140.09642161 510.14875398 -1141.25268555 482.65087891 C-1141.94153911 452.81458029 -1130.30743655 425.47480974 -1110.31713867 403.69433594 C-1092.92265086 385.5639928 -1067.2659395 372.54195834 -1042.03985131 370.95576894 C-1038.98072434 370.90169719 -1035.92787818 370.90855572 -1032.86842346 370.93937683 C-1031.70382801 370.94275678 -1030.53923257 370.94613674 -1029.33934635 370.94961911 C-1026.13363695 370.96066761 -1022.92812818 370.98064522 -1019.72249162 371.00426447 C-1016.25483431 371.02743945 -1012.78713813 371.03856096 -1009.31942749 371.05065918 C-1004.09378688 371.06982082 -998.86818208 371.09247957 -993.64257478 371.119229 C-983.37361481 371.17143507 -973.10475569 371.19504596 -962.8356781 371.20808411 C-961.21595384 371.21026597 -959.59622958 371.21245426 -957.97650534 371.2146489 C-954.69823533 371.21901607 -951.41996517 371.22324427 -948.1416949 371.22740805 C-939.7282484 371.23823579 -931.31480633 371.25079127 -922.90136719 371.26635742 C-921.63569002 371.26868306 -921.63569002 371.26868306 -920.34444361 371.27105568 C-906.66588631 371.29744461 -892.98777417 371.36390606 -879.30943478 371.44328102 C-865.24597448 371.52377889 -851.18299842 371.55459973 -837.1193127 371.54121381 C-828.45474572 371.53465723 -819.79216647 371.56749664 -811.12799596 371.65148274 C-805.18888448 371.70547992 -799.25091426 371.71165657 -793.31164307 371.68069281 C-789.8882362 371.66428903 -786.468284 371.6686816 -783.04532051 371.73050117 C-768.62262188 372.63853426 -768.62262188 372.63853426 -755.85142326 367.32235146 C-752.92203339 364.21920503 -750.91214319 360.83400629 -748.81665039 357.13037109 C-747.39156371 355.31214847 -745.9382318 353.51521473 -744.44165039 351.75537109 C-743.71848633 350.86849609 -742.99532227 349.98162109 -742.25024414 349.06787109 C-734.77557918 340.04548257 -727.04454537 331.24713809 -719.03808594 322.69335938 C-716.42720482 319.90054019 -713.87449498 317.06834436 -711.36352539 314.18505859 C-701.34836256 302.69307439 -690.64179086 291.85435323 -679.87915039 281.06787109 C-679.3413092 280.52744171 -678.80346802 279.98701233 -678.24932861 279.4302063 C-672.81188299 273.97212422 -667.37298908 268.56198305 -661.484375 263.58374023 C-659.67611071 262.00789521 -657.99565415 260.34258043 -656.31665039 258.63037109 C-653.34929716 255.61623527 -650.24319747 252.83119777 -647.03930664 250.07177734 C-644.48688156 247.84233048 -641.99777525 245.55035728 -639.50415039 243.25537109 C-635.03791525 239.18177201 -630.4474366 235.32209406 -625.74243164 231.52880859 C-623.094336 229.35800656 -620.50518616 227.13742486 -617.92431641 224.88818359 C-610.91029523 218.784394 -603.65314841 213.0842739 -596.23461914 207.48193359 C-592.50073395 204.66143837 -588.81143819 201.78826127 -585.13183594 198.89746094 C-544.53082476 167.04852641 -500.29500367 139.41118683 -454.81665039 115.13037109 C-453.94878906 114.6648584 -453.08092773 114.1993457 -452.18676758 113.71972656 C-385.3418198 77.96227494 -314.36278923 49.67519814 -240.81665039 31.13037109 C-239.39603034 30.76857694 -237.97545328 30.40661395 -236.55493164 30.04443359 C-233.32802623 29.22873455 -230.0988633 28.42392317 -226.8659668 27.63232422 C-225.45375244 27.28642087 -224.04199377 26.93865353 -222.63061523 26.58935547 C-195.24819137 19.82941032 -167.72801505 14.21066461 -139.81665039 10.13037109 C-138.57850586 9.94877441 -137.34036133 9.76717773 -136.06469727 9.58007812 C-112.06295423 6.1104384 -87.98992977 3.86580819 -63.81665039 2.00537109 C-62.853479 1.9297998 -61.89030762 1.85422852 -60.89794922 1.77636719 C-40.61432652 0.29224053 -20.33098545 -0.0323722 0 0 Z M-83.81665039 222.13037109 C-85.04179352 222.28243011 -85.04179352 222.28243011 -86.29168701 222.43756104 C-97.16842779 223.79309775 -108.00034618 225.35562735 -118.81665039 227.13037109 C-120.42032471 227.39333984 -120.42032471 227.39333984 -122.05639648 227.66162109 C-135.11327928 229.84451872 -148.04471562 232.59682965 -160.9597168 235.49365234 C-163.78846384 236.12408922 -166.62037744 236.73807401 -169.45336914 237.34912109 C-180.07675912 239.66580041 -190.472879 242.38531282 -200.85571289 245.61083984 C-204.95327845 246.88197069 -209.07278655 248.04334132 -213.20996094 249.17773438 C-271.24415282 265.20521775 -328.39783517 290.95159827 -379.81665039 322.13037109 C-381.37223455 323.0607368 -382.92820353 323.9904595 -384.48461914 324.91943359 C-425.87082036 349.76663261 -464.89347556 378.65713211 -500.60961914 411.14208984 C-502.5453394 412.8859511 -504.51521689 414.57308259 -506.50415039 416.25537109 C-511.35456105 420.46367036 -515.8005069 425.08716237 -520.31396484 429.64916992 C-523.51434704 432.87201375 -526.71322984 436.01624818 -530.19165039 438.94287109 C-533.94325025 442.11482463 -537.09330734 445.71027382 -540.33227539 449.39599609 C-543.06094493 452.39924873 -545.91771684 455.23105429 -548.81665039 458.06787109 C-553.41041235 462.58664463 -557.53601704 467.30901936 -561.54711914 472.36083984 C-563.98302352 475.33339786 -566.56408008 478.14172553 -569.19165039 480.94287109 C-574.10066497 486.20808178 -578.54546716 491.74718229 -582.94165039 497.44287109 C-585.41899381 500.64562446 -587.97650253 503.77458801 -590.55517578 506.89599609 C-597.45485372 515.26248606 -603.88398219 523.90177774 -610.13989258 532.7578125 C-611.86098565 535.19310407 -613.59256762 537.62072187 -615.32446289 540.04833984 C-623.22185591 551.1702214 -630.65716691 562.52178819 -637.81665039 574.13037109 C-638.42887451 575.11545654 -639.04109863 576.10054199 -639.671875 577.11547852 C-644.46575395 584.85387739 -649.10661364 592.6679414 -653.62915039 600.56787109 C-653.97292725 601.16821167 -654.3167041 601.76855225 -654.67089844 602.38708496 C-660.73591281 613.00330963 -666.34463871 623.79685587 -671.67749023 634.80078125 C-672.68683384 636.86489541 -673.71995086 638.91288456 -674.77368164 640.95458984 C-690.71393499 671.88144193 -703.31872577 704.22468993 -714.31665039 737.19287109 C-714.56054504 737.92388031 -714.8044397 738.65488953 -715.0557251 739.40805054 C-728.10838581 778.69668158 -737.95448896 819.13917591 -743.81665039 860.13037109 C-744.06560059 861.82299072 -744.06560059 861.82299072 -744.31958008 863.54980469 C-746.48671383 878.37617096 -748.21412882 893.20529069 -749.50415039 908.13037109 C-749.5952861 909.16880157 -749.5952861 909.16880157 -749.68826294 910.22821045 C-751.44928354 930.55308341 -751.99991714 950.86002048 -751.94165039 971.25537109 C-751.93910248 972.33173828 -751.93655457 973.40810547 -751.93392944 974.51708984 C-751.91645874 980.83692709 -751.88380789 987.15651524 -751.83624268 993.47619629 C-751.81942034 995.75512516 -751.80651703 998.03403012 -751.79467773 1000.31298828 C-751.28331534 1062.38718285 -740.53687144 1127.80147596 -721.8190918 1186.92285156 C-720.73176087 1190.40199275 -719.68462714 1193.8918256 -718.64086914 1197.38427734 C-699.42696076 1261.28429044 -670.97969318 1323.01335048 -635.03637695 1379.22070312 C-633.7553131 1381.22640398 -632.48533908 1383.2389018 -631.21508789 1385.25146484 C-624.94772673 1395.1199994 -618.24380988 1404.6118669 -611.33618164 1414.04052734 C-609.51665039 1416.5429675 -607.73720183 1419.07187787 -605.9597168 1421.60424805 C-601.16896593 1428.41394435 -596.07139024 1434.92979943 -590.82836914 1441.39599609 C-588.36623443 1444.4338696 -585.96007791 1447.51069964 -583.56787109 1450.60375977 C-579.01909354 1456.47593544 -574.2731803 1462.04120191 -569.21118164 1467.48583984 C-566.82178497 1470.12470044 -564.59638113 1472.84603338 -562.37915039 1475.63037109 C-558.42248188 1480.53944123 -554.11809249 1484.95795777 -549.59008789 1489.32958984 C-547.51755714 1491.42255399 -545.60553443 1493.50814807 -543.69555664 1495.73974609 C-539.33035095 1500.78122617 -534.62374274 1505.4734374 -529.90136719 1510.17602539 C-528.38173371 1511.69029689 -526.86752522 1513.20984539 -525.35375977 1514.72998047 C-520.51893341 1519.5677191 -515.62749493 1524.28271828 -510.42822266 1528.73266602 C-508.51221053 1530.39440961 -506.74937554 1532.16614085 -505.00415039 1534.00537109 C-501.13769585 1537.93223899 -496.95546065 1541.34113319 -492.66040039 1544.78662109 C-489.84694095 1547.10540635 -487.17431551 1549.52368822 -484.50415039 1552.00537109 C-478.78442323 1557.26199534 -472.74368123 1562.00853516 -466.59741211 1566.74804688 C-464.86888628 1568.08982275 -463.15495966 1569.44793971 -461.44555664 1570.81396484 C-452.85337289 1577.66974909 -444.01893867 1584.14872314 -435.06616211 1590.52490234 C-432.92633678 1592.0520883 -430.79460246 1593.589933 -428.66430664 1595.13037109 C-417.34768128 1603.26980764 -405.65435571 1610.77388242 -393.81665039 1618.13037109 C-393.16051758 1618.53819824 -392.50438477 1618.94602539 -391.82836914 1619.36621094 C-388.28099553 1621.55775633 -384.70289862 1623.6916148 -381.10229492 1625.79394531 C-379.41047029 1626.78316215 -377.7218208 1627.77781376 -376.03491211 1628.77539062 C-321.52054063 1660.94428428 -261.58515051 1687.92290338 -200.0871582 1703.55126953 C-196.75908875 1704.40010617 -193.44532529 1705.29870079 -190.12915039 1706.19287109 C-188.93547852 1706.50740234 -187.74180664 1706.82193359 -186.51196289 1707.14599609 C-183.95837952 1707.82623183 -181.41425098 1708.52235617 -178.87133789 1709.23974609 C-135.8717487 1721.21237467 -90.94861322 1727.25061819 -46.45739746 1729.73831177 C-43.44088369 1729.91485206 -40.49666831 1730.17963589 -37.50881958 1730.63964844 C-33.97078082 1731.10988577 -30.61918407 1731.25727869 -27.05297852 1731.25976562 C-25.74631226 1731.26291779 -24.439646 1731.26606995 -23.09338379 1731.26931763 C-21.67822232 1731.26752449 -20.26306115 1731.26547271 -18.84790039 1731.26318359 C-17.36600733 1731.26385927 -15.88411437 1731.26483148 -14.40222168 1731.26608276 C-11.29214424 1731.26755467 -8.18209556 1731.26542638 -5.07202148 1731.26074219 C-1.15797102 1731.25512389 2.75601032 1731.25837513 6.67005825 1731.26417732 C23.8607913 1731.28588709 41.01771434 1731.17789014 58.18334961 1730.13037109 C58.87910095 1730.08845642 59.57485229 1730.04654175 60.29168701 1730.00335693 C64.57451006 1729.73509205 68.84710938 1729.39088073 73.12084961 1729.00537109 C73.7760257 1728.94645691 74.43120178 1728.88754272 75.10623169 1728.82684326 C105.22913616 1726.05837437 135.64235082 1721.66784656 165.18334961 1715.13037109 C165.8270752 1714.98792969 166.47080078 1714.84548828 167.1340332 1714.69873047 C184.67346347 1710.80381834 202.07121267 1706.63971189 219.18334961 1701.13037109 C221.10879831 1700.52254582 223.03459718 1699.915829 224.96069336 1699.31005859 C252.87442133 1690.50421397 280.41807786 1681.01988003 307.18334961 1669.13037109 C307.83297668 1668.84272888 308.48260376 1668.55508667 309.1519165 1668.25872803 C325.40267835 1661.0612671 341.56021037 1653.79215158 357.15063477 1645.23486328 C359.17395506 1644.1354757 361.21140103 1643.06936486 363.25756836 1642.01318359 C381.08411536 1632.79431214 398.41872646 1622.610897 415.12817383 1611.49560547 C417.27741229 1610.06788612 419.43493741 1608.65331354 421.59350586 1607.23974609 C432.34540711 1600.16985947 442.82207231 1592.75976066 453.18334961 1585.13037109 C453.75279297 1584.71158691 454.32223633 1584.29280273 454.90893555 1583.86132812 C462.58653386 1578.19927742 470.09702349 1572.32829156 477.57299805 1566.40429688 C479.02557079 1565.25518763 480.48307275 1564.112316 481.94116211 1562.97021484 C487.02565283 1558.96159599 491.859846 1554.75757051 496.64038086 1550.39208984 C499.1350669 1548.17331378 501.69747684 1546.08548348 504.30834961 1544.00537109 C515.14774798 1535.22330896 525.0692008 1525.34106675 534.85913086 1515.41943359 C536.82217258 1513.48608494 538.81076041 1511.69529573 540.93334961 1509.94287109 C543.25987497 1508.00772383 545.22871407 1506.00289492 547.18334961 1503.69287109 C550.74313633 1499.48877909 554.63437631 1495.67634852 558.55834961 1491.81787109 C563.72987011 1486.71184477 568.51707872 1481.51072065 573.01928711 1475.79443359 C575.41160617 1472.84937655 577.96395421 1470.08284324 580.55834961 1467.31787109 C585.46745036 1462.05275382 589.91217584 1456.51354764 594.30834961 1450.81787109 C596.78558574 1447.61525643 599.34291713 1444.48638334 601.92163086 1441.36523438 C626.21543522 1411.90392331 647.35211054 1379.12730907 665.7487793 1345.72314453 C667.06683177 1343.34095984 668.40463425 1340.97167533 669.75366211 1338.60693359 C692.2315615 1299.06555205 709.29494917 1257.02329343 724.18334961 1214.13037109 C724.55089355 1213.07833496 724.9184375 1212.02629883 725.29711914 1210.94238281 C730.3229891 1196.49784583 734.51141817 1181.97349206 738.18334961 1167.13037109 C738.53104618 1165.75765505 738.87988644 1164.38522784 739.23022461 1163.01318359 C739.87668451 1160.46443596 740.51312031 1157.91514135 741.13647461 1155.36083984 C741.88193623 1152.31155376 742.6734455 1149.27725871 743.48022461 1146.24365234 C757.70950554 1091.40600503 762.79691424 1034.03233417 762.57446289 977.51904297 C762.55729241 973.11655186 762.5676161 968.71460222 762.58479023 964.31212902 C762.65920318 941.74912903 761.60747304 919.56148695 759.18334961 897.13037109 C758.99702924 895.32055472 758.81137657 893.51066935 758.62670898 891.70068359 C758.20450578 887.65158303 757.73633671 883.60933783 757.24584961 879.56787109 C757.12021133 878.52723511 757.12021133 878.52723511 756.99203491 877.46557617 C751.4718641 831.94129945 741.28631208 787.17527453 727.27124023 743.52441406 C726.27589218 740.41908896 725.29863517 737.30863907 724.32397461 734.19677734 C716.26592023 708.8587454 705.79334072 684.37331782 694.93334961 660.13037109 C694.56961243 659.31463623 694.20587524 658.49890137 693.83111572 657.65844727 C688.74817029 646.29119045 683.21233955 635.2341474 677.32185364 624.26469421 C675.80835376 621.42737639 674.32967108 618.57258282 672.85202026 615.71647644 C652.73366222 576.8755412 628.03177593 539.59901639 600.21069336 505.84521484 C597.38162249 502.40194367 594.67882412 498.87537119 591.99584961 495.31787109 C588.11194057 490.22102606 583.9687912 485.49104746 579.60522461 480.80224609 C577.24346103 478.19668757 575.0535626 475.5116437 572.87084961 472.75537109 C568.87508659 467.79437935 564.53033604 463.32432863 559.96337891 458.89648438 C557.15390438 456.16088587 554.49125656 453.37296671 551.93725586 450.39599609 C547.45466427 445.20820122 542.60204707 440.40335982 537.74584961 435.56787109 C536.84286133 434.66101563 535.93987305 433.75416016 535.00952148 432.81982422 C530.43453273 428.25146108 525.81708369 423.80723905 520.88549805 419.62426758 C519.12261523 418.07706735 517.49504901 416.44666705 515.87084961 414.75537109 C512.21040425 411.02867333 508.1854834 407.8359521 504.11694336 404.56787109 C501.15368284 402.10572121 498.35987468 399.5243344 495.55834961 396.88037109 C489.54484109 391.24928754 483.05541204 386.33456821 476.47631836 381.38818359 C472.46985378 378.37056002 468.57230552 375.23445889 464.68334961 372.06787109 C457.44825401 366.21711481 449.91294932 360.85024648 442.25805664 355.56542969 C440.30874146 354.21710365 438.36806099 352.85729535 436.42944336 351.49365234 C409.1924142 332.424512 380.64892463 315.75086965 351.0612793 300.62792969 C348.33681136 299.2102264 345.63738232 297.75094049 342.93925476 296.28390503 C334.3194663 291.61585026 325.52162495 287.46851432 316.55834961 283.50537109 C315.40799728 282.99496277 315.40799728 282.99496277 314.23440552 282.47424316 C296.49023958 274.62673176 278.43735227 267.6926002 260.18334961 261.13037109 C259.04198547 260.71951263 259.04198547 260.71951263 257.87756348 260.300354 C239.56351575 253.72275982 221.23280694 247.64453438 202.33911133 242.92480469 C199.09408513 242.10789959 195.85948285 241.25661633 192.62475586 240.39990234 C174.34207098 235.61805371 155.88786959 231.93247401 137.3079834 228.52194214 C135.89318408 228.26119393 134.4788713 227.99779171 133.06506348 227.73171997 C122.18419039 225.68437383 111.3175761 224.22347422 100.30834961 223.06787109 C98.71333298 222.89666756 97.11836262 222.72503244 95.5234375 222.55297852 C92.43561008 222.22066772 89.34747439 221.89149607 86.2590332 221.56494141 C82.20963692 221.13555 78.16319932 220.68260712 74.11816406 220.21386719 C58.20171141 218.48669323 42.26244853 217.96670043 26.26147461 217.89208984 C25.45077892 217.88724579 24.64008324 217.88240173 23.80482101 217.87741089 C17.68100227 217.84139337 11.55726475 217.82512186 5.43334961 217.81787109 C4.0824889 217.81592428 4.0824889 217.81592428 2.70433807 217.81393814 C-26.32016844 217.78226865 -54.98400239 218.48857328 -83.81665039 222.13037109 Z " fill="#D50000" transform="translate(1506.816650390625,64.86962890625)"/>
<path d="M0 0 C1.4074334 0.00056958 1.4074334 0.00056958 2.84329981 0.00115067 C3.92166009 -0.00084038 5.00002037 -0.00283143 6.11105824 -0.00488281 C7.31044842 -0.00196997 8.5098386 0.00094287 9.74557394 0.00394398 C11.00824604 0.00308955 12.27091815 0.00223513 13.57185304 0.00135481 C17.09269132 -0.00089252 20.61349947 0.00313437 24.13433391 0.00813287 C27.92508114 0.01243379 31.71582654 0.01099121 35.50657552 0.0102306 C42.07963937 0.00970514 48.65269332 0.01285427 55.22575468 0.01846844 C64.72940802 0.02658042 74.23305656 0.02919835 83.73671298 0.03045643 C99.15413367 0.03264743 114.57154907 0.0393088 129.98896688 0.04875904 C144.96943536 0.05793193 159.94990241 0.06501337 174.93037313 0.06926686 C176.3144515 0.06966094 176.3144515 0.06966094 177.72649104 0.07006299 C182.35529842 0.07136798 186.9841058 0.0726317 191.61291319 0.07387489 C230.04010731 0.08424899 268.46729554 0.10186859 306.89448446 0.1241985 C309.49051277 7.15288715 312.08508189 14.18211312 314.67797577 21.21195865 C315.88305941 24.47904858 317.08857622 27.74597706 318.29522604 31.0124889 C324.36734925 47.4514737 330.36626975 63.91381261 336.20698446 80.4366985 C336.89167536 82.37209002 337.57637284 84.30747922 338.26107687 86.2428661 C338.56584479 87.10469281 338.87061271 87.96651953 339.18461603 88.85446221 C343.25571255 100.36278777 347.40080112 111.8429489 351.58198446 123.3116985 C351.90604269 124.20069844 352.23010092 125.08969837 352.56397909 126.00563771 C353.22956615 127.83146282 353.89516487 129.65728368 354.56077474 131.48310047 C354.89777395 132.40751438 355.23477316 133.33192829 355.58198446 134.28435475 C356.09533849 135.69230557 356.09533849 135.69230557 356.61906332 137.12869984 C361.12606798 149.49517728 365.60285038 161.87260598 370.08198446 174.2491985 C370.97536473 176.71730168 371.86875671 179.18540061 372.76216024 181.65349537 C376.36126863 191.59678652 379.95958025 201.54036594 383.5575704 211.48406178 C386.19032957 218.76007782 388.82349708 226.03594599 391.45698446 233.3116985 C391.89159994 234.51251057 392.32621542 235.71332264 392.77400106 236.95052296 C399.51745059 255.58034159 406.28566384 274.2010557 413.06309408 292.81853443 C420.02913534 311.95786341 426.94821971 331.113852 433.85208791 350.27566487 C439.86434838 366.96263184 445.88784376 383.64531716 451.95698446 400.3116985 C458.01619304 416.95120097 464.05491369 433.5980267 470.08198446 450.2491985 C470.52373007 451.46953785 470.96547567 452.68987721 471.42060751 453.94719654 C475.46705444 465.1258648 479.51253726 476.30488187 483.5575704 487.48406178 C486.19032957 494.76007782 488.82349708 502.03594599 491.45698446 509.3116985 C492.10890768 511.11291661 492.10890768 511.11291661 492.77400106 512.95052296 C499.51745059 531.58034159 506.28566384 550.2010557 513.06309408 568.81853443 C520.02913534 587.95786341 526.94821971 607.113852 533.85208791 626.27566487 C539.86434838 642.96263184 545.88784376 659.64531716 551.95698446 676.3116985 C558.01619304 692.95120097 564.05491369 709.5980267 570.08198446 726.2491985 C570.52373007 727.46953785 570.96547567 728.68987721 571.42060751 729.94719654 C575.46705444 741.1258648 579.51253726 752.30488187 583.5575704 763.48406178 C586.19032957 770.76007782 588.82349708 778.03594599 591.45698446 785.3116985 C591.89159994 786.51251057 592.32621542 787.71332264 592.77400106 788.95052296 C599.51745059 807.58034159 606.28566384 826.2010557 613.06309408 844.81853443 C620.26126253 864.59563722 627.40888587 884.39069475 634.5421285 904.19127613 C641.59223292 923.76078168 648.67548725 943.31793467 655.79966635 962.86060292 C656.90963997 965.90799731 658.01625967 968.95660473 659.12281698 972.00524098 C659.88812427 974.10673376 660.66015726 976.20566448 661.43305868 978.30437428 C661.89823831 979.57888793 662.36325497 980.85346107 662.82807821 982.12810475 C663.22954061 983.22066578 663.63100302 984.31322682 664.04463094 985.43889576 C664.89448446 988.1241985 664.89448446 988.1241985 664.89448446 991.1241985 C563.25448446 991.1241985 461.61448446 991.1241985 356.89448446 991.1241985 C353.57515183 983.82166671 350.41550001 976.58777929 347.52339071 969.1241985 C347.12514089 968.10423283 346.72689108 967.08426716 346.31657308 966.03339344 C345.46782175 963.85908443 344.62035701 961.6842728 343.77409261 959.50899464 C341.52163925 953.72048332 339.25843062 947.93617803 336.99604696 942.15154225 C336.32456877 940.43377835 336.32456877 940.43377835 335.63952535 938.68131214 C332.2437125 930.00014524 328.80794978 921.33603579 325.33198446 912.6866985 C318.54661099 895.79096871 311.82426217 878.8703025 305.10504431 861.94818455 C304.22425047 859.73017761 303.34320875 857.5122693 302.4620809 855.29439503 C301.03929535 851.71305031 299.61709614 848.13147324 298.19530004 844.54973561 C297.67425874 843.23732435 297.15306992 841.92497164 296.63169378 840.61269337 C291.01161334 826.46586808 285.46061914 812.29254131 279.89448446 798.1241985 C195.41448446 797.7941985 110.93448446 797.4641985 23.89448446 797.1241985 C22.90448446 800.4241985 21.91448446 803.7241985 20.89448446 807.1241985 C20.30987367 808.77509537 19.70364435 810.41892467 19.05464071 812.04558522 C18.55338674 813.3110619 18.55338674 813.3110619 18.04200643 814.60210377 C17.68394918 815.4936919 17.32589193 816.38528004 16.95698446 817.303886 C16.56911764 818.27974659 16.18125082 819.25560719 15.78163046 820.26103932 C14.48979974 823.50865419 13.19209073 826.75388745 11.89448446 829.9991985 C10.96339149 832.33708111 10.0327391 834.67513923 9.10249227 837.01335865 C7.35580343 841.40253348 5.60787909 845.79120894 3.85801977 850.1791206 C0.35653358 858.95955389 -3.13423981 867.744214 -6.62114054 876.5304485 C-6.89935145 877.23144799 -7.17756235 877.93244747 -7.46420389 878.65468937 C-8.5970346 881.50907306 -9.72983896 884.36346721 -10.86257273 887.21788937 C-13.73891058 894.46590813 -16.61761071 901.71298739 -19.49614054 908.960136 C-30.37027546 936.34643267 -41.23704522 963.73565328 -52.10551554 991.1241985 C-154.07551554 991.1241985 -256.04551554 991.1241985 -361.10551554 991.1241985 C-357.73000565 979.87249885 -357.73000565 979.87249885 -356.24638468 975.72112232 C-355.90993937 974.77601292 -355.57349406 973.83090351 -355.22685343 972.85715443 C-354.86841349 971.85859928 -354.50997355 970.86004414 -354.14067179 969.83122975 C-353.7557255 968.75287358 -353.37077921 967.67451741 -352.97416788 966.56348377 C-351.70822356 963.02022323 -350.43830022 959.47840511 -349.16801554 955.9366985 C-348.49698635 954.06185192 -347.82595832 952.18700493 -347.15505224 950.3121143 C-338.8258672 927.04051434 -330.37869272 903.81207001 -321.91485697 880.58914906 C-317.12495201 867.44145214 -312.36554464 854.28273416 -307.60551554 841.1241985 C-300.81203291 822.34640972 -293.99919477 803.57580446 -287.16801554 784.8116985 C-280.02830098 765.19943437 -272.93015844 745.57249966 -265.85551554 725.9366985 C-259.60744285 708.59505813 -253.35025816 691.25692813 -247.04301554 673.9366985 C-240.98380696 657.29719602 -234.94508631 640.65037029 -228.91801554 623.9991985 C-228.47626993 622.77885914 -228.03452433 621.55851979 -227.57939249 620.30120045 C-223.53294556 609.1225322 -219.48746274 597.94351513 -215.4424296 586.76433522 C-212.80967043 579.48831917 -210.17650292 572.212451 -207.54301554 564.9366985 C-207.10840006 563.73588642 -206.67378458 562.53507435 -206.22599894 561.29787403 C-199.48254941 542.66805541 -192.71433616 524.04734129 -185.93690592 505.42986256 C-179.20885838 486.94442581 -172.52351469 468.44385247 -165.85551554 449.9366985 C-159.29425973 431.72581262 -152.71835434 413.52050685 -146.09452921 395.33226734 C-140.32844745 379.4992043 -134.58862515 363.65672896 -128.85551554 347.8116985 C-121.9783436 328.8048736 -115.08263535 309.80493001 -108.16801554 290.8116985 C-101.02829467 271.19943667 -93.93015843 251.57249964 -86.85551554 231.9366985 C-80.60744285 214.59505813 -74.35025816 197.25692813 -68.04301554 179.9366985 C-61.9838069 163.29719587 -55.94516022 146.65034363 -49.91801554 129.9991985 C-49.47793162 128.78351185 -49.03784769 127.56782521 -48.58442789 126.31529957 C-44.50888812 115.0569384 -40.43416483 103.79828214 -36.3618632 92.53874928 C-30.2830648 75.73148748 -24.20077114 58.92550052 -18.10551554 42.1241985 C-17.71287516 41.04186939 -17.32023478 39.95954029 -16.9156962 38.84441334 C-14.72892201 32.81839189 -12.53864933 26.79366336 -10.34275919 20.77095753 C-9.69032664 18.98050915 -9.03882048 17.1897229 -8.38829142 15.39858204 C-7.5102705 12.9819085 -6.62875169 10.5665424 -5.74614054 8.15154225 C-5.48994944 7.44424977 -5.23375834 6.73695729 -4.96980387 6.0082317 C-2.82669603 0.16673892 -2.82669603 0.16673892 0 0 Z " fill="#FDFDFD" transform="translate(1360.1055155396461,508.8758015036583)"/>
<path d="M0 0 C1.75853501 -0.00256327 1.75853501 -0.00256327 3.55259597 -0.00517833 C6.77951195 -0.00788728 10.0062643 -0.00169696 13.23316097 0.00837779 C16.72313341 0.01706097 20.21309901 0.0140887 23.70307922 0.01257324 C29.74070135 0.01152745 35.77828006 0.01777194 41.81589127 0.02904892 C50.54512434 0.04534262 59.27433654 0.05051588 68.00358318 0.0530249 C82.16816198 0.05739595 96.33271767 0.07068899 110.49728394 0.08963013 C124.25216558 0.10800424 138.00704093 0.12215324 151.76193237 0.13064575 C152.61059888 0.1311712 153.45926538 0.13169665 154.33364905 0.13223802 C158.59140298 0.1348482 162.84915695 0.13737559 167.10691094 0.13986182 C202.39720799 0.16057592 237.6874782 0.19578532 272.97775269 0.24050903 C272.01636379 1.52264754 271.05493553 2.80475654 270.0934906 4.08685303 C269.29040388 5.15781943 269.29040388 5.15781943 268.47109318 6.25042152 C266.83995611 8.42414247 265.20466799 10.59469208 263.56759644 12.76394653 C240.69064604 43.12500367 219.21230197 74.42666823 199.97775269 107.24050903 C199.56493042 107.94143677 199.15210815 108.6423645 198.72677612 109.36453247 C191.19475956 122.17063317 183.96241503 135.12805344 176.97775269 148.24050903 C176.66559814 148.82509888 176.3534436 149.40968872 176.03182983 150.01199341 C167.22098939 166.52617557 158.95441711 183.18425183 151.43087769 200.32644653 C150.7003322 201.98182028 149.96937665 203.63701311 149.23800659 205.29202271 C147.47988572 209.27279572 145.72722242 213.25592691 143.97775269 217.24050903 C123.67075569 217.33426509 103.36380307 217.40464064 83.05663395 217.44775772 C73.62605076 217.46831661 64.19560265 217.49630837 54.7651062 217.54226685 C46.53822447 217.58234027 38.31144065 217.60799024 30.08446401 217.61686301 C25.7348924 217.62204333 21.38560069 217.63407683 17.03611946 217.66342926 C12.92798097 217.69092391 8.82023311 217.69888668 4.71201134 217.69293976 C3.21783945 217.694025 1.72365214 217.70177374 0.22956085 217.71733093 C-27.27140997 217.9892249 -52.42388579 207.06178787 -73.02224731 189.24050903 C-73.84338013 188.53410278 -74.66451294 187.82769653 -75.51052856 187.09988403 C-95.98267459 168.04587957 -107.30201854 139.25889192 -108.45828247 111.76101685 C-109.14713603 81.92471823 -97.51303347 54.58494768 -77.5227356 32.80447388 C-57.53194399 11.96799308 -28.80140287 -0.15538906 0 0 Z " fill="#00EE02" transform="translate(474.0222473144531,435.7594909667969)"/>
<path d="M0 0 C35.62692813 -0.13773286 71.25380909 -0.24325982 106.88094926 -0.30639198 C111.09975111 -0.31389502 115.31855244 -0.32166107 119.53735352 -0.32958984 C120.37713974 -0.33116371 121.21692595 -0.33273757 122.08216024 -0.33435912 C135.62889245 -0.36037261 149.17546981 -0.40762716 162.72211056 -0.46291678 C176.65188447 -0.51929032 190.58157804 -0.55240815 204.51146132 -0.56453097 C213.08719787 -0.57270935 221.66249654 -0.59841123 230.23809809 -0.6474988 C236.14161807 -0.67954231 242.04491613 -0.68872778 247.94851648 -0.68100826 C251.3403511 -0.67721498 254.73082558 -0.68588882 258.12262154 -0.71523285 C279.2463235 -0.88882492 300.93310505 1.04963791 320 11 C321.13179687 11.58523438 322.26359375 12.17046875 323.4296875 12.7734375 C331.35030113 17.0149432 338.31784425 21.9584639 345 28 C345.91523438 28.82113281 346.83046875 29.64226562 347.7734375 30.48828125 C362.1536938 44.08306136 372.02164739 61.91631499 377 81 C377.2990625 82.00546875 377.598125 83.0109375 377.90625 84.046875 C384.98178433 110.90769977 379.18706967 140.80030751 365.48925781 164.5300293 C361.87639576 170.50107424 357.59684129 175.75274522 353 181 C352.32839844 181.85464844 351.65679688 182.70929688 350.96484375 183.58984375 C345.47674186 190.32176992 338.1821317 195.23407927 331 200 C330.2884375 200.49242187 329.576875 200.98484375 328.84375 201.4921875 C323.32765999 205.08541515 317.43787545 207.67405999 311.375 210.1875 C310.59463379 210.52064209 309.81426758 210.85378418 309.01025391 211.19702148 C296.05044404 216.38747101 282.67248981 217.44957428 268.86328125 217.34057617 C267.32399513 217.33972704 265.78470779 217.34021061 264.24542236 217.34190369 C260.12242406 217.3427539 255.99969505 217.32528874 251.87675858 217.30418181 C247.54732937 217.28524996 243.21789195 217.28365171 238.88842773 217.28010559 C230.71489668 217.27083309 222.54148802 217.24628525 214.36801052 217.21605712 C205.05223551 217.18236254 195.73645423 217.16598949 186.42063332 217.15097082 C167.28035319 217.11973062 148.14018648 217.0670649 129 217 C127.89151864 214.6283262 126.78342107 212.25647433 125.67553711 209.88452148 C125.36520287 209.22064171 125.05486862 208.55676193 124.73513031 207.87276459 C122.42053423 202.91617235 120.1432471 197.94340868 117.88110352 192.96264648 C113.13518641 182.52444074 108.25194507 172.19225639 103 162 C102.57138672 161.16210938 102.14277344 160.32421875 101.70117188 159.4609375 C79.13284539 115.39149328 53.18865946 73.00199323 24 33 C23.4652002 32.2668457 22.93040039 31.53369141 22.37939453 30.77832031 C15.60812554 21.51197563 8.77306882 12.30838689 1.6953125 3.2734375 C0 1 0 1 0 0 Z " fill="#00EE02" transform="translate(2278,436)"/>
<path d="M0 0 C1.51943444 0.00084894 3.0388701 0.00036593 4.55830383 -0.00132751 C8.6317773 -0.00217848 12.70497873 0.01529913 16.77838969 0.03639436 C21.05443949 0.05531342 25.33049744 0.05692347 29.60658264 0.06047058 C37.68098294 0.06974676 45.75525951 0.09429972 53.82960564 0.12451905 C63.03169559 0.15820199 72.23379185 0.17458379 81.43592823 0.18960536 C100.34415543 0.22085391 119.25226791 0.273527 138.16040039 0.34057617 C139.26569194 2.53923575 140.36965762 4.73854503 141.47290039 6.93823242 C141.78163086 7.55202759 142.09036133 8.16582275 142.40844727 8.79821777 C145.47255018 14.9123126 148.31853047 21.12057439 151.16040039 27.34057617 C161.47503084 49.69146135 172.42377473 71.61473813 184.77026367 92.9230957 C186.36352444 95.69381367 187.90687332 98.4894021 189.4453125 101.29077148 C211.27476193 140.85243465 237.62884161 178.53340949 265.46508789 214.06713867 C267.16040039 216.34057617 267.16040039 216.34057617 267.16040039 217.34057617 C230.98103075 217.40932694 194.80167261 217.46214787 158.62225103 217.49377216 C154.34549798 217.49752403 150.06874505 217.50140702 145.79199219 217.50537109 C144.94061102 217.50615803 144.08922985 217.50694496 143.21204925 217.50775573 C129.44846132 217.5207897 115.68491119 217.54443241 101.92134564 217.57203456 C87.78595045 217.60014479 73.65057498 217.61676428 59.51515299 217.62284166 C50.80133916 217.62694647 42.08763222 217.63988475 33.37385131 217.66432557 C27.38867606 217.6802522 21.40355563 217.68496095 15.41836076 217.6810803 C11.97145076 217.67916946 8.52472679 217.6819815 5.07785034 217.6981926 C-21.56668305 217.80503856 -21.56668305 217.80503856 -33.83959961 214.34057617 C-34.61739808 214.12327441 -35.39519655 213.90597265 -36.19656467 213.68208599 C-51.26205375 209.03752777 -65.24734095 200.96827473 -76.83959961 190.34057617 C-77.76385742 189.4975293 -78.68811523 188.65448242 -79.64038086 187.78588867 C-86.43366393 181.30267246 -91.9253797 174.33071693 -96.83959961 166.34057617 C-97.19151367 165.77387207 -97.54342773 165.20716797 -97.90600586 164.62329102 C-112.25130229 141.04751096 -116.81224137 111.64976177 -110.61010742 84.80737305 C-108.91429995 78.08791711 -106.6777695 71.66611611 -103.83959961 65.34057617 C-103.4103418 64.36088867 -102.98108398 63.38120117 -102.53881836 62.37182617 C-94.20840249 44.53769642 -79.9800942 27.30092 -62.83959961 17.34057617 C-62.23422363 16.98801758 -61.62884766 16.63545898 -61.00512695 16.2722168 C-41.7211306 5.18914019 -22.27193299 -0.17770223 0 0 Z " fill="#00EE02" transform="translate(478.839599609375,1424.659423828125)"/>
<path d="M0 0 C19.0031901 -0.04689448 38.00636832 -0.08207382 57.00960445 -0.10362434 C65.83479189 -0.1139003 74.65994319 -0.12788952 83.48510742 -0.15087891 C91.18461129 -0.17092627 98.88408897 -0.18374312 106.58361822 -0.18817699 C110.65364265 -0.19076533 114.72359222 -0.19677055 118.79359245 -0.21146011 C157.20317095 -0.34438696 187.83364089 3.77256039 218 30 C218.62390625 30.53882813 219.2478125 31.07765625 219.890625 31.6328125 C228.7763177 39.89567628 235.73567321 51.1554868 241 62 C241.76957031 63.56427734 241.76957031 63.56427734 242.5546875 65.16015625 C253.76880076 89.45740164 254.86746233 119.07831753 246.17041016 144.41699219 C235.23843034 173.39118259 214.70110317 195.0488841 186.98046875 208.4609375 C173.21870146 214.54043309 159.31247597 217.16032393 144.33851624 217.12025452 C142.58382614 217.12153615 142.58382614 217.12153615 140.79368776 217.12284368 C137.56003965 217.1242027 134.32643192 217.12109 131.09278858 217.11606562 C127.60071814 217.11173757 124.10864951 217.11320922 120.61657715 217.1139679 C114.57073079 217.11449164 108.52489523 217.11136046 102.47905159 217.10573006 C93.73783235 217.0975948 84.99661832 217.09499776 76.2553957 217.09374207 C62.07252321 217.09155473 47.88965648 217.08490328 33.70678711 217.07543945 C19.93139678 217.0662571 6.15600801 217.05918029 -7.61938477 217.05493164 C-8.46883944 217.05466892 -9.31829412 217.05440619 -10.19348984 217.05413551 C-14.4550557 217.05283045 -18.71662157 217.05156675 -22.97818744 217.05032361 C-58.31879573 217.03996092 -93.65939733 217.02235126 -129 217 C-128.05744533 215.74262159 -127.11480061 214.48531069 -126.17211914 213.22802734 C-125.64719376 212.52785492 -125.12226837 211.8276825 -124.58143616 211.10629272 C-123.13941848 209.18568953 -121.69385679 207.26783658 -120.24609375 205.3515625 C-75.54125935 146.0933221 -36.90158663 82.33657138 -6.53515625 14.55078125 C-5.89480241 13.1264019 -5.25421892 11.70212577 -4.61340332 10.2779541 C-3.07297086 6.85314718 -1.5355882 3.42698219 0 0 Z " fill="#00EE02" transform="translate(2407,1425)"/>
<path d="M0 0 C2.04841282 3.07261924 3.42734453 6.05010788 4.9140625 9.4296875 C5.34374329 10.40384109 5.34374329 10.40384109 5.78210449 11.39767456 C6.73272046 13.5554839 7.67897729 15.71517335 8.625 17.875 C9.295302 19.40011264 9.96571417 20.92517687 10.63623047 22.45019531 C17.19896708 37.39357857 23.67226123 52.37570522 30.13522339 67.36244202 C33.06325399 74.15079206 36.0049754 80.93316006 38.94833374 87.71487427 C43.31404388 97.77666532 47.66789818 107.84359806 51.99890137 117.92037964 C52.79663885 119.77561301 53.59605641 121.63012368 54.39550781 123.48461914 C54.86956055 124.58926514 55.34361328 125.69391113 55.83203125 126.83203125 C56.25202393 127.80889893 56.6720166 128.7857666 57.10473633 129.79223633 C58 132 58 132 58 133 C20.05 133 -17.9 133 -57 133 C-53.62503397 122.87510192 -53.62503397 122.87510192 -52.12158203 119.4152832 C-51.78288086 118.63074265 -51.44417969 117.84620209 -51.09521484 117.03788757 C-50.73637207 116.21714249 -50.3775293 115.3963974 -50.0078125 114.55078125 C-49.62560547 113.66828201 -49.24339844 112.78578278 -48.84960938 111.87654114 C-47.61161001 109.0203109 -46.3683516 106.16640386 -45.125 103.3125 C-44.26120284 101.3222561 -43.39776184 99.33185758 -42.53466797 97.34130859 C-40.81676523 93.38080677 -39.09686973 89.42118107 -37.375 85.46240234 C-35.34990672 80.80620058 -33.32932881 76.14806798 -31.3125 71.48828125 C-27.36774835 62.37529464 -23.4185523 53.26424383 -19.46154785 44.15657043 C-18.0361839 40.8755093 -16.6117686 37.59403673 -15.1875 34.3125 C-14.77839386 33.37034134 -14.77839386 33.37034134 -14.36102295 32.40914917 C-10.59759665 23.73885375 -6.8788663 15.05167547 -3.27026367 6.31567383 C-1.10433142 1.10433142 -1.10433142 1.10433142 0 0 Z " fill="#060152" transform="translate(1512,916)"/>
</svg>
